<svg xmlns="http://www.w3.org/2000/svg" xmlns:xlink="http://www.w3.org/1999/xlink" xmlns:lucid="lucid" width="2374.63" height="2203.52"><g transform="translate(0 0)" lucid:page-tab-id="0_0"><path d="M178.68 342.83l-6.9 1425.54" fill="none"/><path d="M178.68 342.83l-.03 5m-.02 5l-.05 10m-.02 5l-.05 10.02m-.02 5l-.04 10m-.03 5l-.04 10m-.02 5l-.05 10m-.03 5.02l-.05 10m-.03 5l-.06 10m-.02 5l-.05 10m-.02 5L178 482.9m-.03 5l-.04 10m-.03 5l-.05 10m-.02 5l-.05 10m-.02 5l-.05 10m-.02 5l-.04 10.02m-.03 5l-.04 10m-.02 5l-.05 10m-.03 5l-.05 10m-.03 5l-.06 10.02m-.02 5l-.05 10m-.02 5l-.05 10m-.03 5l-.04 10.02m-.03 5l-.05 10m-.02 5l-.05 10m-.02 5l-.05 10m-.02 5l-.04 10.02m-.03 5l-.04 10m-.02 5l-.05 10m-.03 5l-.05 10.02m-.03 5l-.06 10m-.02 5l-.05 10m-.02 5l-.05 10m-.03 5l-.04 10.02m-.03 5l-.05 10m-.02 5l-.05 10m-.02 5l-.05 10m-.02 5.02l-.04 10m-.03 5l-.04 10m-.02 5l-.05 10m-.03 5l-.05 10.02m-.03 5l-.06 10m-.02 5l-.05 10m-.02 5l-.05 10m-.03 5.02l-.04 10m-.03 5l-.05 10m-.02 5l-.05 10m-.02 5l-.05 10.02m-.02 5l-.04 10m-.03 5l-.04 10m-.02 5l-.05 10m-.03 5.02l-.05 10m-.03 5l-.06 10m-.02 5l-.05 10m-.02 5l-.05 10.02m-.03 5l-.04 10m-.03 5l-.05 10m-.02 5l-.05 10m-.02 5.02l-.05 10m-.02 5l-.04 10m-.03 5l-.04 10m-.02 5l-.05 10.02m-.03 5l-.05 10m-.03 5l-.06 10m-.02 5l-.05 10m-.02 5.02l-.05 10m-.03 5l-.04 10m-.03 5l-.05 10m-.02 5l-.05 10.02m-.02 5l-.05 10m-.02 5l-.04 10m-.03 5l-.04 10m-.02 5.02l-.05 10m-.03 5l-.05 10m-.03 5l-.06 10m-.02 5l-.05 10.02m-.02 5l-.05 10m-.02 5l-.05 10m-.03 5l-.05 10m-.02 5.02l-.05 10m-.02 5l-.05 10m-.02 5l-.04 10m-.03 5l-.04 10.02m-.02 5l-.05 10m-.03 5l-.05 10m-.03 5l-.06 10m-.02 5l-.05 10.02m-.02 5l-.05 10m-.02 5l-.05 10m-.03 5l-.05 10.02m-.02 5l-.05 10m-.02 5l-.05 10m-.02 5l-.04 10m-.03 5l-.04 10.02m-.02 5l-.05 10m-.03 5l-.05 10m-.03 5l-.03 5" stroke="#333" fill="none"/><path d="M179.18 342.85h-1v-.52h1z" fill="#333"/><path d="M171.77 1768.36v.5" stroke="#333" fill="none"/><path d="M159.75 420.06c0-4.42 3.6-8 8-8h24c4.42 0 8 3.58 8 8V1662.1c0 4.4-3.58 8-8 8h-24c-4.4 0-8-3.6-8-8z" stroke="#f2f2f2" fill="#d2d3d5"/><path d="M675.87 342.83v1460.52" fill="none"/><path d="M675.87 342.83v5.02m0 5.02v10.04m0 5.03v10.04m0 5.02V393m0 5.02v10.04m0 5.02v10.04m0 5.02v10.03m0 5v10.05m0 5.02v10.04m0 5.03v10.04m0 5v10.05m0 5.02v10.04m0 5.02v10.04m0 5v10.05m0 5v10.05m0 5.02v10.04m0 5.03v10.03m0 5.02v10.04m0 5.02v10.04m0 5.02v10.03m0 5.02V649m0 5v10.05m0 5.02v10.03m0 5.02v10.04m0 5.02v10.04m0 5.02v10.04m0 5v10.05m0 5.02v10.04m0 5v10.05m0 5v10.05m0 5.02v10.04m0 5.02v10.04m0 5.02v10.03m0 5.02v10.03m0 5.02v10.04m0 5v10.04m0 5.02v10.04m0 5.02v10.04m0 5.02V920m0 5.03v10.04m0 5.02v10.03m0 5.02v10.04m0 5v10.04m0 5.02v10.04m0 5.02v10.04m0 5v10.05m0 5.03v10.04m0 5.02v10.03m0 5.02v10.03m0 5.02v10.04m0 5.02v10.04m0 5.02v10.03m0 5.02v10.04m0 5.03v10.04m0 5.02v10.02m0 5.02v10.04m0 5.02v10.04m0 5.02v10.04m0 5v10.05m0 5.02v10.04m0 5.03v10.04m0 5v10.05m0 5.02v10.04m0 5.02v10.04m0 5.02v10.03m0 5v10.05m0 5.02v10.04m0 5.03v10.03m0 5.02v10.04m0 5.02v10.04m0 5.02v10.03m0 5.02v10.04m0 5v10.05m0 5.02V1447m0 5.02v10.04m0 5.02v10.04m0 5.02v10.04m0 5v10.05m0 5.02v10.04m0 5v10.05m0 5.02v10.03m0 5.02v10.04m0 5.02v10.04m0 5.02v10.03m0 5.02v10.03m0 5.02v10.04m0 5v10.04m0 5.02v10.04m0 5.02v10.04m0 5.02v10.03m0 5.03v10.04m0 5.02v10.03m0 5.02v10.04m0 5v10.04m0 5.02v10.04m0 5.02v10.04m0 5.02v10.03m0 5.03v5.02" stroke="#333" fill="none"/><path d="M676.37 342.85h-1v-.52h1z" fill="#333"/><path d="M675.87 1803.34v.5" stroke="#333" fill="none"/><path d="M655.87 414.82c0-4.42 3.58-8 8-8h24c4.42 0 8 3.58 8 8V1662.1c0 4.4-3.58 8-8 8h-24c-4.42 0-8-3.6-8-8z" stroke="#f2f2f2" fill="#d2d3d5"/><path d="M1056.95 462.9v1367.54" fill="none"/><path d="M1056.95 462.9v5.02m0 5v10.02m0 5v10.03m0 5V513m0 5v10.03m0 5v10.02m0 5v10.03m0 5v10.03m0 5.02v10.02m0 5v10.03m0 5v10.02m0 5v10.02m0 5v10.03m0 5v10.03m0 5v10.02m0 5v10.03m0 5v10.03m0 5v10.03m0 5v10.02m0 5v10.02m0 5v10.03m0 5v10.03m0 5v10.03m0 5v10.03m0 5v10.02m0 5v10.03m0 5.02v10.02m0 5v10.03m0 5v10.02m0 5v10.02m0 5v10.03m0 5v10.03m0 5v10.03m0 5v10.03m0 5v10.03m0 5v10.03m0 5v10.02m0 5v10.02m0 5v10.03m0 5V1054m0 5v10.03m0 5v10.03m0 5v10.02m0 5v10.03m0 5.02v10.02m0 5v10.03m0 5v10.02m0 5v10.02m0 5v10.03m0 5v10.03m0 5v10.03m0 5v10.03m0 5v10.03m0 5v10.03m0 5v10.02m0 5v10.02m0 5v10.03m0 5v10.03m0 5v10.03m0 5v10.03m0 5v10.02m0 5v10.03m0 5.02v10.02m0 5v10.03m0 5v10.02m0 5v10.02m0 5v10.03m0 5v10.03m0 5v10.03m0 5.02v10m0 5.02v10.02m0 5v10.03m0 5v10.02m0 5v10.02m0 5v10.03m0 5V1595m0 5v10.03m0 5v10.03m0 5v10.02m0 5v10.03m0 5.02v10.02m0 5v10.03m0 5v10.02m0 5v10.02m0 5v10.03m0 5v10.03m0 5v10.03m0 5.02v10m0 5.02v10.02m0 5v10.03m0 5v10.02m0 5v5.02" stroke="#333" fill="none"/><path d="M1057.45 462.92h-1v-.5h1z" fill="#333"/><path d="M1056.95 1830.42v.52" stroke="#333" fill="none"/><path d="M83.64 230.33c0-4.4 3.58-8 8-8h174.08c4.42 0 8 3.6 8 8v104c0 4.42-3.58 8-8 8H91.64c-4.42 0-8-3.58-8-8z" stroke="#000" stroke-opacity="0" fill="#ffbd50"/><use xlink:href="#a" transform="matrix(1,0,0,1,91.64233530422675,230.3344480576411) translate(9.074074074074076 55.111111111111114)"/><use xlink:href="#b" transform="matrix(1,0,0,1,91.64233530422675,230.3344480576411) translate(33.2283950617284 55.111111111111114)"/><path d="M580.83 230.33c0-4.4 3.6-8 8-8H762.9c4.43 0 8 3.6 8 8v104c0 4.42-3.57 8-8 8H588.84c-4.4 0-8-3.58-8-8z" stroke="#000" stroke-opacity="0" fill="#ffbd50"/><use xlink:href="#c" transform="matrix(1,0,0,1,588.8339983282196,230.3344480576411) translate(19.422839506172835 55.111111111111114)"/><use xlink:href="#d" transform="matrix(1,0,0,1,588.8339983282196,230.3344480576411) translate(62.50308641975308 55.111111111111114)"/><path d="M961.9 393.4c0-4.4 3.6-8 8-8H1144c4.4 0 8 3.6 8 8v61c0 4.42-3.6 8-8 8H969.9c-4.4 0-8-3.58-8-8z" stroke="#000" stroke-opacity="0" fill="#ffbd50"/><use xlink:href="#e" transform="matrix(1,0,0,1,969.9145057489632,393.4065635162116) translate(49.151234567901234 33.611111111111114)"/><use xlink:href="#f" transform="matrix(1,0,0,1,969.9145057489632,393.4065635162116) translate(68.07716049382717 33.611111111111114)"/><path d="M515.25 80c0-4.42 3.58-8 8-8H1360c4.42 0 8 3.58 8 8v25.16c0 4.4-3.58 8-8 8H523.25c-4.42 0-8-3.6-8-8z" stroke="#000" stroke-opacity="0" stroke-width="2" fill="#fff" fill-opacity="0"/><use xlink:href="#g" transform="matrix(1,0,0,1,519.2514858249714,76) translate(111.6532098765432 25.782777777777778)"/><use xlink:href="#h" transform="matrix(1,0,0,1,519.2514858249714,76) translate(238.24827160493825 25.782777777777778)"/><use xlink:href="#i" transform="matrix(1,0,0,1,519.2514858249714,76) translate(276.05197530864194 25.782777777777778)"/><use xlink:href="#j" transform="matrix(1,0,0,1,519.2514858249714,76) translate(409.9309876543209 25.782777777777778)"/><use xlink:href="#k" transform="matrix(1,0,0,1,519.2514858249714,76) translate(488.4519753086419 25.782777777777778)"/><use xlink:href="#l" transform="matrix(1,0,0,1,519.2514858249714,76) translate(603.3927160493827 25.782777777777778)"/><use xlink:href="#m" transform="matrix(1,0,0,1,519.2514858249714,76) translate(641.1964197530864 25.782777777777778)"/><path d="M690.8 111.8h510.47M690.82 111.8h-1.02M1201.25 111.8h1.02" stroke="#b2b2b2" stroke-width="2" fill="none"/><path d="M515.25 121.16c0-4.42 3.58-8 8-8h837.7c4.43 0 8 3.58 8 8V124c0 4.42-3.57 8-8 8h-837.7c-4.42 0-8-3.58-8-8z" stroke="#000" stroke-opacity="0" stroke-width="2" fill="#fff" fill-opacity="0"/><use xlink:href="#n" transform="matrix(1,0,0,1,519.2514858249717,117.1552239567824) translate(268.1420473251029 14.917037037037037)"/><use xlink:href="#o" transform="matrix(1,0,0,1,519.2514858249717,117.1552239567824) translate(305.5329938271605 14.917037037037037)"/><use xlink:href="#p" transform="matrix(1,0,0,1,519.2514858249717,117.1552239567824) translate(359.83484567901235 14.917037037037037)"/><use xlink:href="#q" transform="matrix(1,0,0,1,519.2514858249717,117.1552239567824) translate(437.8884465020576 14.917037037037037)"/><use xlink:href="#r" transform="matrix(1,0,0,1,519.2514858249717,117.1552239567824) translate(450.33793209876546 14.917037037037037)"/><use xlink:href="#s" transform="matrix(1,0,0,1,519.2514858249717,117.1552239567824) translate(524.9923559670782 14.917037037037037)"/><use xlink:href="#t" transform="matrix(1,0,0,1,519.2514858249717,117.1552239567824) translate(550.4861831275721 14.917037037037037)"/><path d="M200.75 431.08H639" stroke="#333" fill="none"/><path d="M200.77 431.58h-.52v-1h.52zM653.75 431.08l-14.26 4.64v-9.27z" fill="#333"/><path d="M655.37 431.08L639 436.4v-10.64zM640 435.03l12.13-3.95-12.14-3.94z" fill="#333"/><use xlink:href="#u" transform="matrix(1,0,0,1,241.16749242191452,408.41771178479956) translate(0 12.444444444444446)"/><use xlink:href="#v" transform="matrix(1,0,0,1,241.16749242191452,408.41771178479956) translate(111.26543209876543 12.444444444444446)"/><use xlink:href="#w" transform="matrix(1,0,0,1,241.16749242191452,408.41771178479956) translate(165.62345679012344 12.444444444444446)"/><use xlink:href="#x" transform="matrix(1,0,0,1,241.16749242191452,408.41771178479956) translate(304.3703703703703 12.444444444444446)"/><path d="M1306.1 607.52c0-4.42 3.58-8 8-8h144c4.42 0 8 3.58 8 8v61.18c0 4.42-3.58 8-8 8h-144c-4.42 0-8-3.58-8-8z" stroke="#333" fill="#ffbd50"/><use xlink:href="#y" transform="matrix(1,0,0,1,1306.1000208049393,599.521321025218) translate(53.055 43.65)"/><use xlink:href="#z" transform="matrix(1,0,0,1,1306.1000208049393,599.521321025218) translate(67.005 43.65)"/><path d="M1605.86 778.8c0-4.4 3.58-8 8-8H1833c4.42 0 8 3.6 8 8v39.78c0 4.42-3.58 8-8 8h-219.14c-4.42 0-8-3.58-8-8z" stroke="#333" fill="#ffbd50"/><use xlink:href="#A" transform="matrix(1,0,0,1,1605.8606813175481,770.8131270324232) translate(29.604999999999983 31.9)"/><use xlink:href="#B" transform="matrix(1,0,0,1,1605.8606813175481,770.8131270324232) translate(50.554999999999986 31.9)"/><use xlink:href="#C" transform="matrix(1,0,0,1,1605.8606813175481,770.8131270324232) translate(60.554999999999986 31.9)"/><path d="M1386.1 677.7v1214.13" fill="none"/><path d="M1386.1 677.7v5m0 5v9.98m0 5v10m0 5v9.98m0 5v10m0 5v9.98m0 5v10m0 5v9.98m0 5v10m0 5v9.98m0 5v10m0 4.98v10m0 5v10m0 4.98v10m0 5v9.98m0 5v10m0 5v9.98m0 5v10m0 5v9.98m0 5v10m0 5v9.98m0 5v10m0 5v9.98m0 5v10m0 4.98v10m0 5v10m0 4.98v10m0 5v9.98m0 5v10m0 5v9.98m0 5v10m0 5v9.98m0 5v10m0 5v9.98m0 5v10m0 5v9.98m0 5v10m0 4.98v10m0 5v10m0 4.98v10m0 5v10m0 4.98v10m0 5v9.98m0 5v10m0 5v9.98m0 5v10m0 5v9.98m0 5v10m0 5v9.98m0 5v10m0 4.98v10m0 5v10m0 4.98v10m0 5v10m0 4.98v10m0 5v9.98m0 5v10m0 5v9.98m0 5v10m0 5v9.98m0 5v10m0 5v9.98m0 5v10m0 5v9.98m0 5v10m0 4.98v10m0 5v10m0 4.98v10m0 5v9.98m0 5v10m0 5v9.98m0 5v10m0 5v9.98m0 5v10m0 5v9.98m0 5v10m0 5v9.98m0 5v10m0 4.98v10m0 5v10m0 4.98v10m0 5v5" stroke="#333" fill="none"/><path d="M1386.6 677.7h-1v-.5h1z" fill="#333"/><path d="M1386.1 1891.82v.5M696.87 448.2h341.26" stroke="#333" fill="none"/><path d="M696.88 448.7h-.5v-1h.5z" fill="#333"/><path d="M1052.9 448.2l-14.27 4.65v-9.27z" stroke="#333" fill="#333"/><use xlink:href="#D" transform="matrix(1,0,0,1,851.2890780748455,425.5468923855198) translate(0.004999999999999005 12.444444444444446)"/><path d="M696.87 668.1h672.6" stroke="#333" fill="none"/><path d="M696.88 668.6h-.5v-1h.5z" fill="#333"/><path d="M1384.22 668.1l-14.26 4.63v-9.27z" stroke="#333" fill="#333"/><use xlink:href="#D" transform="matrix(1,0,0,1,1137.785689613169,645.42626872153) translate(0.004999999999999005 12.444444444444446)"/><path d="M1036.95 508c0-4.42 3.58-8 8-8h24c4.42 0 8 3.58 8 8v104c0 4.42-3.58 8-8 8h-24c-4.42 0-8-3.58-8-8z" stroke="#f2f2f2" fill="#d2d3d5"/><path d="M1035.95 595.24h-323.2" stroke="#333" fill="none"/><path d="M1036.45 595.74h-.5v-1h.5zM712.26 599.87L698 595.24l14.26-4.64z" fill="#333"/><path d="M712.76 600.56l-16.4-5.32 16.4-5.32zm-13.15-5.32l12.16 3.95v-7.9z" fill="#333"/><use xlink:href="#E" transform="matrix(1,0,0,1,809.5044636961075,599.2390258750378) translate(0.005000000000002558 12.444444444444446)"/><use xlink:href="#F" transform="matrix(1,0,0,1,809.5044636961075,599.2390258750378) translate(49.134629629629636 12.444444444444446)"/><path d="M1077.95 527.56h109.1c6.62 0 12 5.37 12 12v33.7c0 6.6-5.38 12-12 12h-93.2" stroke="#333" fill="none"/><path d="M1077.96 528.06h-.5v-1h.5zM1093.34 589.88l-14.27-4.63 14.27-4.64z" fill="#333"/><path d="M1093.84 590.57l-16.4-5.32 16.4-5.33zm-13.15-5.32l12.14 3.94v-7.9z" fill="#333"/><use xlink:href="#G" transform="matrix(1,0,0,1,1207.042642050436,547.0693153319155) translate(0 12.444444444444446)"/><path d="M1366.1 693.17c0-4.42 3.58-8 8-8h24c4.42 0 8 3.58 8 8v104c0 4.42-3.58 8-8 8h-24c-4.42 0-8-3.58-8-8z" stroke="#f2f2f2" fill="#d2d3d5"/><path d="M1365.1 780.8H712.76" stroke="#333" fill="none"/><path d="M1365.6 781.3h-.5v-1h.5zM712.26 785.44L698 780.8l14.26-4.63z" fill="#333"/><path d="M712.76 786.13l-16.4-5.32 16.4-5.32zm-13.15-5.32l12.16 3.95v-7.9z" fill="#333"/><use xlink:href="#E" transform="matrix(1,0,0,1,806.2671010048042,784.8051490495101) translate(0.005000000000002558 12.444444444444446)"/><use xlink:href="#H" transform="matrix(1,0,0,1,806.2671010048042,784.8051490495101) translate(49.134629629629636 12.444444444444446)"/><path d="M1407.1 712.73h121.53c6.63 0 12 5.37 12 12v33.68c0 6.64-5.37 12-12 12h-105.65" stroke="#333" fill="none"/><path d="M1407.1 713.23h-.5v-1h.5zM1422.48 775.05l-14.26-4.64 14.26-4.62z" fill="#333"/><path d="M1422.98 775.74l-16.38-5.33 16.38-5.3zm-13.14-5.33l12.14 3.96v-7.9z" fill="#333"/><use xlink:href="#I" transform="matrix(1,0,0,1,1548.6289430871013,732.2365393573293) translate(0 12.444444444444446)"/><path d="M1723.42 827.58l-25.88 1069.67" fill="none"/><path d="M1723.42 827.58l-.12 5.02m-.12 5.02l-.25 10.05m-.12 5.02l-.23 10.03m-.12 5.02l-.25 10.05m-.12 5.02l-.24 10.04m-.12 5.03l-.25 10.03m-.12 5.02l-.24 10.04m-.1 5.02l-.25 10.04m-.13 5.02l-.24 10.05m-.12 5.02l-.24 10.04m-.12 5l-.25 10.06m-.12 5.02l-.24 10.04m-.13 5.03l-.25 10.04m-.12 5l-.24 10.05m-.12 5.03l-.25 10.04m-.13 5.02l-.24 10.05m-.12 5l-.23 10.05m-.13 5.02l-.24 10.05m-.12 5.02l-.24 10.04m-.12 5.03l-.25 10.05m-.12 5.02l-.24 10.05m-.1 5.02l-.26 10.04m-.12 5.02l-.24 10.05m-.12 5.02l-.25 10.04m-.1 5.03l-.25 10.05m-.12 5.02l-.24 10.04m-.14 5.03l-.24 10.04m-.12 5.03l-.24 10.05m-.12 5.02l-.25 10.04m-.13 5.02l-.24 10.05m-.12 5.03l-.24 10.04m-.12 5.02l-.24 10.04m-.12 5.02l-.24 10.04m-.13 5.03l-.23 10.04m-.12 5.02l-.24 10.04m-.12 5.02l-.24 10.04m-.12 5.02l-.24 10.05m-.12 5.02l-.25 10.03m-.1 5.02l-.25 10.05m-.12 5.02l-.25 10.04m-.12 5.03l-.24 10.03m-.12 5.02l-.24 10.05m-.13 5.02l-.24 10.04m-.13 5.02l-.24 10.05m-.13 5.02l-.24 10.04m-.12 5l-.24 10.06m-.12 5.02l-.25 10.04m-.12 5.03l-.23 10.04m-.12 5l-.25 10.06m-.12 5.02l-.24 10.04m-.12 5.02l-.24 10.05m-.13 5l-.24 10.05m-.1 5.02l-.25 10.05m-.12 5.02l-.25 10.04m-.12 5.03l-.24 10.05m-.12 5.02l-.25 10.05m-.12 5.02l-.24 10.04m-.13 5.02l-.25 10.05m-.12 5.02l-.24 10.04m-.12 5.03l-.24 10.05m-.13 5.02l-.24 10.04m-.12 5.03l-.23 10.04m-.12 5.03l-.25 10.05m-.12 5.02l-.24 10.04m-.12 5.02l-.25 10.05m-.12 5.03l-.24 10.04m-.1 5.02l-.26 10.04m-.12 5.02l-.24 10.04m-.12 5.03l-.24 10.04m-.13 5.02l-.25 10.04m-.12 5.02l-.24 10.04m-.13 5.02l-.13 5.03" stroke="#333" fill="none"/><path d="M1723.92 827.6l-1-.02v-.5h1z" fill="#333"/><path d="M1697.54 1897.23v.52" stroke="#333" fill="none"/><path d="M1703.43 843.05c0-4.42 3.58-8 8-8h24c4.42 0 8 3.58 8 8v104c0 4.42-3.58 8-8 8h-24c-4.42 0-8-3.58-8-8z" stroke="#f2f2f2" fill="#d2d3d5"/><path d="M1702.43 930.7H712.76" stroke="#333" fill="none"/><path d="M1702.93 931.2h-.5v-1h.5zM712.26 935.32L698 930.7l14.26-4.65z" fill="#333"/><path d="M712.76 936l-16.4-5.3 16.4-5.34zm-13.15-5.3l12.16 3.93v-7.9z" fill="#333"/><use xlink:href="#E" transform="matrix(1,0,0,1,776.5600697628702,934.6854793058145) translate(0.0049999999999954525 12.444444444444446)"/><use xlink:href="#J" transform="matrix(1,0,0,1,776.5600697628702,934.6854793058145) translate(49.13462962962963 12.444444444444446)"/><path d="M1744.43 862.6h94.17c6.62 0 12 5.38 12 12v33.7c0 6.62-5.38 12-12 12h-78.3" stroke="#333" fill="none"/><path d="M1744.44 863.1h-.5v-1h.5zM1759.8 924.93l-14.25-4.64 14.26-4.64z" fill="#333"/><path d="M1760.3 925.62l-16.37-5.33 16.38-5.33zm-13.13-5.33l12.14 3.94v-7.9z" fill="#333"/><use xlink:href="#K" transform="matrix(1,0,0,1,1858.5966859862883,882.116869613634) translate(0 12.444444444444446)"/><path d="M542.97 1078.57c0-4.4 3.6-8 8-8h84c4.42 0 8 3.6 8 8v4.93c0 3.9-2.23 9.3-5 12.07-2.76 2.77-8.16 5-12.07 5h-74.93c-4.4 0-8-3.58-8-8z" fill="#ffe6be"/><path d="M642.97 1070.57v20l-10 10h-90" stroke="#333" fill="none"/><path d="M542.97 1078.57c0-4.4 3.6-8 8-8h684c4.42 0 8 3.6 8 8v390.82c0 4.4-3.58 8-8 8h-684c-4.4 0-8-3.6-8-8zM542.97 1273.98h20m15 0h20m15 0h20m15 0h20m15 0h20m15 0h20m15 0h20m15 0h20m15 0h20m15 0h20m15 0h20m15 0h20m15 0h20m15 0h20m15 0h20m15 0h20m15 0h20m15 0h20m15 0h20m15 0h20" stroke="#333" fill="none"/><g><use xlink:href="#L" transform="matrix(1,0,0,1,550.974019028032,1070.5737875450318) translate(26.52469135802469 18.11111111111111)"/></g><g><use xlink:href="#M" transform="matrix(1,0,0,1,554.974019028032,1108.5737875450318) translate(14.027777777777771 18.11111111111111)"/><use xlink:href="#N" transform="matrix(1,0,0,1,554.974019028032,1108.5737875450318) translate(129.95987654320987 18.11111111111111)"/><use xlink:href="#O" transform="matrix(1,0,0,1,554.974019028032,1108.5737875450318) translate(156.66358024691357 18.11111111111111)"/><use xlink:href="#P" transform="matrix(1,0,0,1,554.974019028032,1108.5737875450318) translate(243.34259259259258 18.11111111111111)"/><use xlink:href="#Q" transform="matrix(1,0,0,1,554.974019028032,1108.5737875450318) translate(270.0462962962963 18.11111111111111)"/></g><g><use xlink:href="#R" transform="matrix(1,0,0,1,554.974019028032,1281.9828071785878) translate(13.981481481481467 18.11111111111111)"/><use xlink:href="#S" transform="matrix(1,0,0,1,554.974019028032,1281.9828071785878) translate(124.7716049382716 18.11111111111111)"/><use xlink:href="#T" transform="matrix(1,0,0,1,554.974019028032,1281.9828071785878) translate(137.73456790123456 18.11111111111111)"/><use xlink:href="#U" transform="matrix(1,0,0,1,554.974019028032,1281.9828071785878) translate(219.2716049382716 18.11111111111111)"/><use xlink:href="#V" transform="matrix(1,0,0,1,554.974019028032,1281.9828071785878) translate(232.23456790123456 18.11111111111111)"/></g><path d="M654.87 1239.72H216.64" stroke="#333" fill="none"/><path d="M655.37 1240.22h-.5v-1h.5zM216.14 1244.36l-14.27-4.64 14.27-4.63z" fill="#333"/><path d="M216.64 1245.05l-16.4-5.33 16.4-5.32zm-13.15-5.33l12.14 3.95v-7.9z" fill="#333"/><g><use xlink:href="#W" transform="matrix(1,0,0,1,236.1181217952697,1243.7244459771473) translate(0.0049999999999954525 12.444444444444446)"/><use xlink:href="#X" transform="matrix(1,0,0,1,236.1181217952697,1243.7244459771473) translate(33.53586419753086 12.444444444444446)"/></g><path d="M654.87 1327.5H216.64" stroke="#333" fill="none"/><path d="M655.37 1328h-.5v-1h.5zM216.14 1332.15l-14.27-4.64 14.27-4.62z" fill="#333"/><path d="M216.64 1332.83l-16.4-5.32 16.4-5.3zm-13.15-5.32l12.14 3.96v-7.9z" fill="#333"/><g><use xlink:href="#W" transform="matrix(1,0,0,1,236.11812179526925,1331.5114965558398) translate(0.0049999999999954525 12.444444444444446)"/><use xlink:href="#Y" transform="matrix(1,0,0,1,236.11812179526925,1331.5114965558398) translate(33.53586419753086 12.444444444444446)"/></g><path d="M696.87 815.06H1699.9" stroke="#333" fill="none"/><path d="M696.88 815.56h-.5v-1h.5z" fill="#333"/><path d="M1714.66 815.06l-14.27 4.64v-9.27z" stroke="#333" fill="#333"/><g><use xlink:href="#Z" transform="matrix(1,0,0,1,1161.7716790878906,792.3968435842842) translate(0 12.444444444444446)"/></g><path d="M696.87 1158.08H817.9c6.63 0 12 5.38 12 12v31.83c0 6.64-5.37 12-12 12H712.26" stroke="#333" fill="none"/><path d="M696.88 1158.58h-.5v-1h.5z" fill="#333"/><path d="M697.5 1213.9l14.26-4.63v9.27z" stroke="#333" fill="#333"/><g><use xlink:href="#aa" transform="matrix(1,0,0,1,837.9005396753054,1176.9129736920331) translate(0 12.444444444444446)"/></g><defs><path fill="#333" d="M135-150c-39-12-60 13-60 57V0H25l-1-190h47c2 13-1 29 3 40 6-28 27-53 61-41v41" id="ab"/><path fill="#333" d="M190-63c-7 42-38 67-86 67-59 0-84-38-90-98-12-110 154-137 174-36l-49 2c-2-19-15-32-35-32-30 0-35 28-38 64-6 74 65 87 74 30" id="ac"/><path fill="#333" d="M35-132v-50h50v50H35zM35 0v-49h50V0H35" id="ad"/><g id="a"><use transform="matrix(0.04320987654320988,0,0,0.04320987654320988,0,0)" xlink:href="#ab"/><use transform="matrix(0.04320987654320988,0,0,0.04320987654320988,6.049382716049383,0)" xlink:href="#ac"/><use transform="matrix(0.04320987654320988,0,0,0.04320987654320988,14.69135802469136,0)" xlink:href="#ad"/></g><path fill="#333" d="M240-174c0 40-23 61-54 70L253 0h-59l-57-94H76V0H24v-248c93 4 217-23 216 74zM76-134c48-2 112 12 112-38 0-48-66-32-112-35v73" id="ae"/><path fill="#333" d="M185-48c-13 30-37 53-82 52C43 2 14-33 14-96s30-98 90-98c62 0 83 45 84 108H66c0 31 8 55 39 56 18 0 30-7 34-22zm-45-69c5-46-57-63-70-21-2 6-4 13-4 21h74" id="af"/><path fill="#333" d="M135-194c53 0 70 44 70 98 0 56-19 98-73 100-31 1-45-17-59-34 3 33 2 69 2 105H25l-1-265h48c2 10 0 23 3 31 11-24 29-35 60-35zM114-30c33 0 39-31 40-66 0-38-9-64-40-64-56 0-55 130 0 130" id="ag"/><path fill="#333" d="M110-194c64 0 96 36 96 99 0 64-35 99-97 99-61 0-95-36-95-99 0-62 34-99 96-99zm-1 164c35 0 45-28 45-65 0-40-10-65-43-65-34 0-45 26-45 65 0 36 10 65 43 65" id="ah"/><path fill="#333" d="M115-3C79 11 28 4 28-45v-112H4v-33h27l15-45h31v45h36v33H77v99c-1 23 16 31 38 25v30" id="ai"/><path fill="#333" d="M67-125c0 53 21 87 73 88 37 1 54-22 65-47l45 17C233-25 199 4 140 4 58 4 20-42 15-125 8-235 124-281 211-232c18 10 29 29 36 50l-46 12c-8-25-30-41-62-41-52 0-71 34-72 86" id="aj"/><path fill="#333" d="M135-194c87-1 58 113 63 194h-50c-7-57 23-157-34-157-59 0-34 97-39 157H25l-1-190h47c2 12-1 28 3 38 12-26 28-41 61-42" id="ak"/><path fill="#333" d="M25 0v-261h50V0H25" id="al"/><g id="b"><use transform="matrix(0.04320987654320988,0,0,0.04320987654320988,0,0)" xlink:href="#ae"/><use transform="matrix(0.04320987654320988,0,0,0.04320987654320988,11.19135802469136,0)" xlink:href="#af"/><use transform="matrix(0.04320987654320988,0,0,0.04320987654320988,19.833333333333336,0)" xlink:href="#ag"/><use transform="matrix(0.04320987654320988,0,0,0.04320987654320988,29.296296296296298,0)" xlink:href="#ah"/><use transform="matrix(0.04320987654320988,0,0,0.04320987654320988,38.75925925925926,0)" xlink:href="#ab"/><use transform="matrix(0.04320987654320988,0,0,0.04320987654320988,44.808641975308646,0)" xlink:href="#ai"/><use transform="matrix(0.04320987654320988,0,0,0.04320987654320988,49.95061728395062,0)" xlink:href="#af"/><use transform="matrix(0.04320987654320988,0,0,0.04320987654320988,58.592592592592595,0)" xlink:href="#aj"/><use transform="matrix(0.04320987654320988,0,0,0.04320987654320988,69.78395061728395,0)" xlink:href="#ah"/><use transform="matrix(0.04320987654320988,0,0,0.04320987654320988,79.24691358024691,0)" xlink:href="#ak"/><use transform="matrix(0.04320987654320988,0,0,0.04320987654320988,88.70987654320987,0)" xlink:href="#ai"/><use transform="matrix(0.04320987654320988,0,0,0.04320987654320988,93.85185185185185,0)" xlink:href="#ab"/><use transform="matrix(0.04320987654320988,0,0,0.04320987654320988,99.90123456790123,0)" xlink:href="#ah"/><use transform="matrix(0.04320987654320988,0,0,0.04320987654320988,109.36419753086419,0)" xlink:href="#al"/><use transform="matrix(0.04320987654320988,0,0,0.04320987654320988,113.68518518518518,0)" xlink:href="#al"/><use transform="matrix(0.04320987654320988,0,0,0.04320987654320988,118.00617283950616,0)" xlink:href="#af"/><use transform="matrix(0.04320987654320988,0,0,0.04320987654320988,126.64814814814814,0)" xlink:href="#ab"/></g><path fill="#333" d="M88-194c31-1 46 15 58 34l-1-101h50l1 261h-48c-2-10 0-23-3-31C134-8 116 4 84 4 32 4 16-41 15-95c0-56 19-97 73-99zm17 164c33 0 40-30 41-66 1-37-9-64-41-64s-38 30-39 65c0 43 13 65 39 65" id="am"/><path fill="#333" d="M133-34C117-15 103 5 69 4 32 3 11-16 11-54c-1-60 55-63 116-61 1-26-3-47-28-47-18 1-26 9-28 27l-52-2c7-38 36-58 82-57s74 22 75 68l1 82c-1 14 12 18 25 15v27c-30 8-71 5-69-32zm-48 3c29 0 43-24 42-57-32 0-66-3-65 30 0 17 8 27 23 27" id="an"/><g id="c"><use transform="matrix(0.04320987654320988,0,0,0.04320987654320988,0,0)" xlink:href="#ab"/><use transform="matrix(0.04320987654320988,0,0,0.04320987654320988,6.049382716049383,0)" xlink:href="#am"/><use transform="matrix(0.04320987654320988,0,0,0.04320987654320988,15.512345679012347,0)" xlink:href="#an"/><use transform="matrix(0.04320987654320988,0,0,0.04320987654320988,24.154320987654323,0)" xlink:href="#ah"/><use transform="matrix(0.04320987654320988,0,0,0.04320987654320988,33.617283950617285,0)" xlink:href="#ad"/></g><path fill="#333" d="M24-248c120-7 223 5 221 122C244-46 201 0 124 0H24v-248zM76-40c74 7 117-18 117-86 0-67-45-88-117-82v168" id="ao"/><path fill="#333" d="M199 0l-22-63H83L61 0H9l90-248h61L250 0h-51zm-33-102l-36-108c-10 38-24 72-36 108h72" id="ap"/><path fill="#333" d="M140-251c80 0 125 45 125 126S219 4 139 4C58 4 15-44 15-125s44-126 125-126zm-1 214c52 0 73-35 73-88 0-50-21-86-72-86-52 0-73 35-73 86s22 88 72 88" id="aq"/><g id="d"><use transform="matrix(0.04320987654320988,0,0,0.04320987654320988,0,0)" xlink:href="#ae"/><use transform="matrix(0.04320987654320988,0,0,0.04320987654320988,11.19135802469136,0)" xlink:href="#af"/><use transform="matrix(0.04320987654320988,0,0,0.04320987654320988,19.833333333333336,0)" xlink:href="#ag"/><use transform="matrix(0.04320987654320988,0,0,0.04320987654320988,29.296296296296298,0)" xlink:href="#ah"/><use transform="matrix(0.04320987654320988,0,0,0.04320987654320988,38.75925925925926,0)" xlink:href="#ab"/><use transform="matrix(0.04320987654320988,0,0,0.04320987654320988,44.808641975308646,0)" xlink:href="#ai"/><use transform="matrix(0.04320987654320988,0,0,0.04320987654320988,49.95061728395062,0)" xlink:href="#af"/><use transform="matrix(0.04320987654320988,0,0,0.04320987654320988,58.592592592592595,0)" xlink:href="#ao"/><use transform="matrix(0.04320987654320988,0,0,0.04320987654320988,69.78395061728395,0)" xlink:href="#ap"/><use transform="matrix(0.04320987654320988,0,0,0.04320987654320988,80.9753086419753,0)" xlink:href="#aq"/></g><path fill="#333" d="M85 4C-2 5 27-109 22-190h50c7 57-23 150 33 157 60-5 35-97 40-157h50l1 190h-47c-2-12 1-28-3-38-12 25-28 42-61 42" id="ar"/><g id="e"><use transform="matrix(0.04320987654320988,0,0,0.04320987654320988,0,0)" xlink:href="#ar"/><use transform="matrix(0.04320987654320988,0,0,0.04320987654320988,9.462962962962964,0)" xlink:href="#ad"/></g><path fill="#333" d="M238-95c0 69-44 99-111 99C63 4 22-25 22-93v-155h51v151c-1 38 19 59 55 60 90 1 49-130 58-211h52v153" id="as"/><path fill="#333" d="M137-138c1-29-70-34-71-4 15 46 118 7 119 86 1 83-164 76-172 9l43-7c4 19 20 25 44 25 33 8 57-30 24-41C81-84 22-81 20-136c-2-80 154-74 161-7" id="at"/><path fill="#333" d="M25-224v-37h50v37H25zM25 0v-190h50V0H25" id="au"/><g id="f"><use transform="matrix(0.04320987654320988,0,0,0.04320987654320988,0,0)" xlink:href="#as"/><use transform="matrix(0.04320987654320988,0,0,0.04320987654320988,11.19135802469136,0)" xlink:href="#at"/><use transform="matrix(0.04320987654320988,0,0,0.04320987654320988,19.833333333333336,0)" xlink:href="#ar"/><use transform="matrix(0.04320987654320988,0,0,0.04320987654320988,29.296296296296298,0)" xlink:href="#an"/><use transform="matrix(0.04320987654320988,0,0,0.04320987654320988,37.93827160493827,0)" xlink:href="#ab"/><use transform="matrix(0.04320987654320988,0,0,0.04320987654320988,43.98765432098766,0)" xlink:href="#au"/><use transform="matrix(0.04320987654320988,0,0,0.04320987654320988,48.308641975308646,0)" xlink:href="#ah"/></g><path fill="#b2b2b2" d="M24-248c120-7 223 5 221 122C244-46 201 0 124 0H24v-248zM76-40c74 7 117-18 117-86 0-67-45-88-117-82v168" id="av"/><path fill="#b2b2b2" d="M25-224v-37h50v37H25zM25 0v-190h50V0H25" id="aw"/><path fill="#b2b2b2" d="M133-34C117-15 103 5 69 4 32 3 11-16 11-54c-1-60 55-63 116-61 1-26-3-47-28-47-18 1-26 9-28 27l-52-2c7-38 36-58 82-57s74 22 75 68l1 82c-1 14 12 18 25 15v27c-30 8-71 5-69-32zm-48 3c29 0 43-24 42-57-32 0-66-3-65 30 0 17 8 27 23 27" id="ax"/><path fill="#b2b2b2" d="M195-6C206 82 75 100 31 46c-4-6-6-13-8-21l49-6c3 16 16 24 34 25 40 0 42-37 40-79-11 22-30 35-61 35-53 0-70-43-70-97 0-56 18-96 73-97 30 0 46 14 59 34l2-30h47zm-90-29c32 0 41-27 41-63 0-35-9-62-40-62-32 0-39 29-40 63 0 36 9 62 39 62" id="ay"/><path fill="#b2b2b2" d="M135-150c-39-12-60 13-60 57V0H25l-1-190h47c2 13-1 29 3 40 6-28 27-53 61-41v41" id="az"/><path fill="#b2b2b2" d="M220-157c-53 9-28 100-34 157h-49v-107c1-27-5-49-29-50C55-147 81-57 75 0H25l-1-190h47c2 12-1 28 3 38 10-53 101-56 108 0 13-22 24-43 59-42 82 1 51 116 57 194h-49v-107c-1-25-5-48-29-50" id="aA"/><g id="g"><use transform="matrix(0.0728395061728395,0,0,0.0728395061728395,0,0)" xlink:href="#av"/><use transform="matrix(0.0728395061728395,0,0,0.0728395061728395,18.86543209876543,0)" xlink:href="#aw"/><use transform="matrix(0.0728395061728395,0,0,0.0728395061728395,26.14938271604938,0)" xlink:href="#ax"/><use transform="matrix(0.0728395061728395,0,0,0.0728395061728395,40.717283950617286,0)" xlink:href="#ay"/><use transform="matrix(0.0728395061728395,0,0,0.0728395061728395,56.66913580246913,0)" xlink:href="#az"/><use transform="matrix(0.0728395061728395,0,0,0.0728395061728395,66.86666666666666,0)" xlink:href="#ax"/><use transform="matrix(0.0728395061728395,0,0,0.0728395061728395,81.43456790123457,0)" xlink:href="#aA"/><use transform="matrix(0.0728395061728395,0,0,0.0728395061728395,104.7432098765432,0)" xlink:href="#ax"/></g><path fill="#b2b2b2" d="M88-194c31-1 46 15 58 34l-1-101h50l1 261h-48c-2-10 0-23-3-31C134-8 116 4 84 4 32 4 16-41 15-95c0-56 19-97 73-99zm17 164c33 0 40-30 41-66 1-37-9-64-41-64s-38 30-39 65c0 43 13 65 39 65" id="aB"/><path fill="#b2b2b2" d="M185-48c-13 30-37 53-82 52C43 2 14-33 14-96s30-98 90-98c62 0 83 45 84 108H66c0 31 8 55 39 56 18 0 30-7 34-22zm-45-69c5-46-57-63-70-21-2 6-4 13-4 21h74" id="aC"/><g id="h"><use transform="matrix(0.0728395061728395,0,0,0.0728395061728395,0,0)" xlink:href="#aB"/><use transform="matrix(0.0728395061728395,0,0,0.0728395061728395,15.95185185185185,0)" xlink:href="#aC"/></g><path fill="#b2b2b2" d="M137-138c1-29-70-34-71-4 15 46 118 7 119 86 1 83-164 76-172 9l43-7c4 19 20 25 44 25 33 8 57-30 24-41C81-84 22-81 20-136c-2-80 154-74 161-7" id="aD"/><path fill="#b2b2b2" d="M190-63c-7 42-38 67-86 67-59 0-84-38-90-98-12-110 154-137 174-36l-49 2c-2-19-15-32-35-32-30 0-35 28-38 64-6 74 65 87 74 30" id="aE"/><path fill="#b2b2b2" d="M85 4C-2 5 27-109 22-190h50c7 57-23 150 33 157 60-5 35-97 40-157h50l1 190h-47c-2-12 1-28-3-38-12 25-28 42-61 42" id="aF"/><path fill="#b2b2b2" d="M135-194c87-1 58 113 63 194h-50c-7-57 23-157-34-157-59 0-34 97-39 157H25l-1-190h47c2 12-1 28 3 38 12-26 28-41 61-42" id="aG"/><g id="i"><use transform="matrix(0.0728395061728395,0,0,0.0728395061728395,0,0)" xlink:href="#aD"/><use transform="matrix(0.0728395061728395,0,0,0.0728395061728395,14.5679012345679,0)" xlink:href="#aC"/><use transform="matrix(0.0728395061728395,0,0,0.0728395061728395,29.1358024691358,0)" xlink:href="#aE"/><use transform="matrix(0.0728395061728395,0,0,0.0728395061728395,43.7037037037037,0)" xlink:href="#aF"/><use transform="matrix(0.0728395061728395,0,0,0.0728395061728395,59.65555555555555,0)" xlink:href="#aC"/><use transform="matrix(0.0728395061728395,0,0,0.0728395061728395,74.22345679012345,0)" xlink:href="#aG"/><use transform="matrix(0.0728395061728395,0,0,0.0728395061728395,90.1753086419753,0)" xlink:href="#aE"/><use transform="matrix(0.0728395061728395,0,0,0.0728395061728395,104.7432098765432,0)" xlink:href="#aw"/><use transform="matrix(0.0728395061728395,0,0,0.0728395061728395,112.02716049382715,0)" xlink:href="#ax"/></g><path fill="#b2b2b2" d="M110-194c64 0 96 36 96 99 0 64-35 99-97 99-61 0-95-36-95-99 0-62 34-99 96-99zm-1 164c35 0 45-28 45-65 0-40-10-65-43-65-34 0-45 26-45 65 0 36 10 65 43 65" id="aH"/><path fill="#b2b2b2" d="M135-194c52 0 70 43 70 98 0 56-19 99-73 100-30 1-46-15-58-35L72 0H24l1-261h50v104c11-23 29-37 60-37zM114-30c31 0 40-27 40-66 0-37-7-63-39-63s-41 28-41 65c0 36 8 64 40 64" id="aI"/><g id="j"><use transform="matrix(0.0728395061728395,0,0,0.0728395061728395,0,0)" xlink:href="#aD"/><use transform="matrix(0.0728395061728395,0,0,0.0728395061728395,14.5679012345679,0)" xlink:href="#aH"/><use transform="matrix(0.0728395061728395,0,0,0.0728395061728395,30.51975308641975,0)" xlink:href="#aI"/><use transform="matrix(0.0728395061728395,0,0,0.0728395061728395,46.471604938271604,0)" xlink:href="#az"/><use transform="matrix(0.0728395061728395,0,0,0.0728395061728395,56.669135802469135,0)" xlink:href="#aC"/></g><path fill="#b2b2b2" d="M110-194c64 0 96 36 96 99 0 64-35 99-97 99-61 0-95-36-95-99 0-62 34-99 96-99zm-1 164c35 0 45-28 45-65 0-40-10-65-43-65-34 0-45 26-45 65 0 36 10 65 43 65zM81-208v-5l45-51h45v8l-60 48H81" id="aJ"/><g id="k"><use transform="matrix(0.0728395061728395,0,0,0.0728395061728395,0,0)" xlink:href="#aE"/><use transform="matrix(0.0728395061728395,0,0,0.0728395061728395,14.5679012345679,0)" xlink:href="#az"/><use transform="matrix(0.0728395061728395,0,0,0.0728395061728395,24.76543209876543,0)" xlink:href="#aC"/><use transform="matrix(0.0728395061728395,0,0,0.0728395061728395,39.333333333333336,0)" xlink:href="#ax"/><use transform="matrix(0.0728395061728395,0,0,0.0728395061728395,53.90123456790123,0)" xlink:href="#aE"/><use transform="matrix(0.0728395061728395,0,0,0.0728395061728395,68.46913580246913,0)" xlink:href="#aw"/><use transform="matrix(0.0728395061728395,0,0,0.0728395061728395,75.75308641975307,0)" xlink:href="#aJ"/><use transform="matrix(0.0728395061728395,0,0,0.0728395061728395,91.70493827160493,0)" xlink:href="#aG"/></g><g id="l"><use transform="matrix(0.0728395061728395,0,0,0.0728395061728395,0,0)" xlink:href="#aB"/><use transform="matrix(0.0728395061728395,0,0,0.0728395061728395,15.95185185185185,0)" xlink:href="#aC"/></g><path fill="#b2b2b2" d="M240-174c0 40-23 61-54 70L253 0h-59l-57-94H76V0H24v-248c93 4 217-23 216 74zM76-134c48-2 112 12 112-38 0-48-66-32-112-35v73" id="aK"/><path fill="#b2b2b2" d="M135-194c53 0 70 44 70 98 0 56-19 98-73 100-31 1-45-17-59-34 3 33 2 69 2 105H25l-1-265h48c2 10 0 23 3 31 11-24 29-35 60-35zM114-30c33 0 39-31 40-66 0-38-9-64-40-64-56 0-55 130 0 130" id="aL"/><path fill="#b2b2b2" d="M115-3C79 11 28 4 28-45v-112H4v-33h27l15-45h31v45h36v33H77v99c-1 23 16 31 38 25v30" id="aM"/><g id="m"><use transform="matrix(0.0728395061728395,0,0,0.0728395061728395,0,0)" xlink:href="#aK"/><use transform="matrix(0.0728395061728395,0,0,0.0728395061728395,18.86543209876543,0)" xlink:href="#aC"/><use transform="matrix(0.0728395061728395,0,0,0.0728395061728395,33.43333333333333,0)" xlink:href="#aL"/><use transform="matrix(0.0728395061728395,0,0,0.0728395061728395,49.38518518518518,0)" xlink:href="#aH"/><use transform="matrix(0.0728395061728395,0,0,0.0728395061728395,65.33703703703704,0)" xlink:href="#az"/><use transform="matrix(0.0728395061728395,0,0,0.0728395061728395,75.53456790123457,0)" xlink:href="#aM"/><use transform="matrix(0.0728395061728395,0,0,0.0728395061728395,84.20246913580247,0)" xlink:href="#aC"/></g><path fill="#b2b2b2" d="M153-248C145-148 188 4 80 4 36 3 13-21 6-62l32-5c4 25 16 42 43 43 27 0 39-20 39-49v-147H72v-28h81" id="aN"/><path fill="#b2b2b2" d="M84 4C-5 8 30-112 23-190h32v120c0 31 7 50 39 49 72-2 45-101 50-169h31l1 190h-30c-1-10 1-25-2-33-11 22-28 36-60 37" id="aO"/><path fill="#b2b2b2" d="M141-36C126-15 110 5 73 4 37 3 15-17 15-53c-1-64 63-63 125-63 3-35-9-54-41-54-24 1-41 7-42 31l-33-3c5-37 33-52 76-52 45 0 72 20 72 64v82c-1 20 7 32 28 27v20c-31 9-61-2-59-35zM48-53c0 20 12 33 32 33 41-3 63-29 60-74-43 2-92-5-92 41" id="aP"/><path fill="#b2b2b2" d="M117-194c89-4 53 116 60 194h-32v-121c0-31-8-49-39-48C34-167 62-67 57 0H25l-1-190h30c1 10-1 24 2 32 11-22 29-35 61-36" id="aQ"/><g id="n"><use transform="matrix(0.04248971193415638,0,0,0.04248971193415638,0,0)" xlink:href="#aN"/><use transform="matrix(0.04248971193415638,0,0,0.04248971193415638,7.648148148148148,0)" xlink:href="#aO"/><use transform="matrix(0.04248971193415638,0,0,0.04248971193415638,16.14609053497942,0)" xlink:href="#aP"/><use transform="matrix(0.04248971193415638,0,0,0.04248971193415638,24.644032921810698,0)" xlink:href="#aQ"/></g><path fill="#b2b2b2" d="M240 0l2-218c-23 76-54 145-80 218h-23L58-218 59 0H30v-248h44l77 211c21-75 51-140 76-211h43V0h-30" id="aR"/><path fill="#b2b2b2" d="M100-194c63 0 86 42 84 106H49c0 40 14 67 53 68 26 1 43-12 49-29l28 8c-11 28-37 45-77 45C44 4 14-33 15-96c1-61 26-98 85-98zm52 81c6-60-76-77-97-28-3 7-6 17-6 28h103" id="aS"/><path fill="#b2b2b2" d="M24 0v-261h32V0H24" id="aT"/><g id="o"><use transform="matrix(0.04248971193415638,0,0,0.04248971193415638,0,0)" xlink:href="#aR"/><use transform="matrix(0.04248971193415638,0,0,0.04248971193415638,12.704423868312757,0)" xlink:href="#aP"/><use transform="matrix(0.04248971193415638,0,0,0.04248971193415638,21.20236625514403,0)" xlink:href="#aQ"/><use transform="matrix(0.04248971193415638,0,0,0.04248971193415638,29.7003086419753,0)" xlink:href="#aO"/><use transform="matrix(0.04248971193415638,0,0,0.04248971193415638,38.19825102880658,0)" xlink:href="#aS"/><use transform="matrix(0.04248971193415638,0,0,0.04248971193415638,46.69619341563786,0)" xlink:href="#aT"/></g><path fill="#b2b2b2" d="M233-177c-1 41-23 64-60 70L243 0h-38l-65-103H63V0H30v-248c88 3 205-21 203 71zM63-129c60-2 137 13 137-47 0-61-80-42-137-45v92" id="aU"/><path fill="#b2b2b2" d="M100-194c62-1 85 37 85 99 1 63-27 99-86 99S16-35 15-95c0-66 28-99 85-99zM99-20c44 1 53-31 53-75 0-43-8-75-51-75s-53 32-53 75 10 74 51 75" id="aV"/><path fill="#b2b2b2" d="M85-194c31 0 48 13 60 33l-1-100h32l1 261h-30c-2-10 0-23-3-31C134-8 116 4 85 4 32 4 16-35 15-94c0-66 23-100 70-100zm9 24c-40 0-46 34-46 75 0 40 6 74 45 74 42 0 51-32 51-76 0-42-9-74-50-73" id="aW"/><path fill="#b2b2b2" d="M114-163C36-179 61-72 57 0H25l-1-190h30c1 12-1 29 2 39 6-27 23-49 58-41v29" id="aX"/><path fill="#b2b2b2" d="M24-231v-30h32v30H24zM24 0v-190h32V0H24" id="aY"/><path fill="#b2b2b2" d="M177-190C167-65 218 103 67 71c-23-6-38-20-44-43l32-5c15 47 100 32 89-28v-30C133-14 115 1 83 1 29 1 15-40 15-95c0-56 16-97 71-98 29-1 48 16 59 35 1-10 0-23 2-32h30zM94-22c36 0 50-32 50-73 0-42-14-75-50-75-39 0-46 34-46 75s6 73 46 73" id="aZ"/><path fill="#b2b2b2" d="M9 0v-24l116-142H16v-24h144v24L44-24h123V0H9" id="ba"/><g id="p"><use transform="matrix(0.04248971193415638,0,0,0.04248971193415638,0,0)" xlink:href="#aU"/><use transform="matrix(0.04248971193415638,0,0,0.04248971193415638,11.004835390946502,0)" xlink:href="#aV"/><use transform="matrix(0.04248971193415638,0,0,0.04248971193415638,19.502777777777776,0)" xlink:href="#aW"/><use transform="matrix(0.04248971193415638,0,0,0.04248971193415638,28.000720164609046,0)" xlink:href="#aX"/><use transform="matrix(0.04248971193415638,0,0,0.04248971193415638,33.056995884773656,0)" xlink:href="#aY"/><use transform="matrix(0.04248971193415638,0,0,0.04248971193415638,36.41368312757201,0)" xlink:href="#aZ"/><use transform="matrix(0.04248971193415638,0,0,0.04248971193415638,44.91162551440328,0)" xlink:href="#aO"/><use transform="matrix(0.04248971193415638,0,0,0.04248971193415638,53.40956790123455,0)" xlink:href="#aS"/><use transform="matrix(0.04248971193415638,0,0,0.04248971193415638,61.90751028806584,0)" xlink:href="#ba"/></g><path fill="#b2b2b2" d="M32 76v-337h29V76H32" id="bb"/><use transform="matrix(0.04248971193415638,0,0,0.04248971193415638,0,0)" xlink:href="#bb" id="q"/><path fill="#b2b2b2" d="M190 0L58-211 59 0H30v-248h39L202-35l-2-213h31V0h-41" id="bc"/><path fill="#b2b2b2" d="M108 0H70L1-190h34L89-25l56-165h34" id="bd"/><path fill="#b2b2b2" d="M210-169c-67 3-38 105-44 169h-31v-121c0-29-5-50-35-48C34-165 62-65 56 0H25l-1-190h30c1 10-1 24 2 32 10-44 99-50 107 0 11-21 27-35 58-36 85-2 47 119 55 194h-31v-121c0-29-5-49-35-48" id="be"/><path fill="#b2b2b2" d="M115-194c53 0 69 39 70 98 0 66-23 100-70 100C84 3 66-7 56-30L54 0H23l1-261h32v101c10-23 28-34 59-34zm-8 174c40 0 45-34 45-75 0-40-5-75-45-74-42 0-51 32-51 76 0 43 10 73 51 73" id="bf"/><g id="r"><use transform="matrix(0.04248971193415638,0,0,0.04248971193415638,0,0)" xlink:href="#bc"/><use transform="matrix(0.04248971193415638,0,0,0.04248971193415638,11.004835390946502,0)" xlink:href="#aV"/><use transform="matrix(0.04248971193415638,0,0,0.04248971193415638,19.502777777777776,0)" xlink:href="#bd"/><use transform="matrix(0.04248971193415638,0,0,0.04248971193415638,27.150925925925925,0)" xlink:href="#aS"/><use transform="matrix(0.04248971193415638,0,0,0.04248971193415638,35.6488683127572,0)" xlink:href="#be"/><use transform="matrix(0.04248971193415638,0,0,0.04248971193415638,48.35329218106995,0)" xlink:href="#bf"/><use transform="matrix(0.04248971193415638,0,0,0.04248971193415638,56.851234567901244,0)" xlink:href="#aS"/><use transform="matrix(0.04248971193415638,0,0,0.04248971193415638,65.34917695473251,0)" xlink:href="#aX"/></g><path fill="#b2b2b2" d="M27 0v-27h64v-190l-56 39v-29l58-41h29v221h61V0H27" id="bg"/><path fill="#b2b2b2" d="M101-251c82-7 93 87 43 132L82-64C71-53 59-42 53-27h129V0H18c2-99 128-94 128-182 0-28-16-43-45-43s-46 15-49 41l-32-3c6-41 34-60 81-64" id="bh"/><path fill="#b2b2b2" d="M68-38c1 34 0 65-14 84H32c9-13 17-26 17-46H33v-38h35" id="bi"/><g id="s"><use transform="matrix(0.04248971193415638,0,0,0.04248971193415638,0,0)" xlink:href="#bg"/><use transform="matrix(0.04248971193415638,0,0,0.04248971193415638,8.497942386831275,0)" xlink:href="#bh"/><use transform="matrix(0.04248971193415638,0,0,0.04248971193415638,16.99588477366255,0)" xlink:href="#bi"/></g><path fill="#b2b2b2" d="M101-251c68 0 85 55 85 127S166 4 100 4C33 4 14-52 14-124c0-73 17-127 87-127zm-1 229c47 0 54-49 54-102s-4-102-53-102c-51 0-55 48-55 102 0 53 5 102 54 102" id="bj"/><path fill="#b2b2b2" d="M99-251c64 0 84 50 84 122C183-37 130 33 47-8c-14-7-20-23-25-40l30-5c6 39 69 39 84 7 9-19 16-44 16-74-10 22-31 35-62 35-49 0-73-33-73-83 0-54 28-83 82-83zm-1 141c31-1 51-18 51-49 0-36-14-67-51-67-34 0-49 23-49 58 0 34 15 58 49 58" id="bk"/><g id="t"><use transform="matrix(0.04248971193415638,0,0,0.04248971193415638,0,0)" xlink:href="#bh"/><use transform="matrix(0.04248971193415638,0,0,0.04248971193415638,8.497942386831275,0)" xlink:href="#bj"/><use transform="matrix(0.04248971193415638,0,0,0.04248971193415638,16.99588477366255,0)" xlink:href="#bg"/><use transform="matrix(0.04248971193415638,0,0,0.04248971193415638,25.493827160493822,0)" xlink:href="#bk"/></g><path fill="#333" d="M67-93c0 74 22 123 53 168H70C40 30 18-18 18-93s22-123 52-168h50c-32 44-53 94-53 168" id="bl"/><path fill="#333" d="M24 0v-248h52V0H24" id="bm"/><path fill="#333" d="M76-54c-1 42 2 86-19 110H24C36 42 46 24 48 0H25v-54h51" id="bn"/><g id="u"><use transform="matrix(0.04320987654320988,0,0,0.04320987654320988,0,0)" xlink:href="#ag"/><use transform="matrix(0.04320987654320988,0,0,0.04320987654320988,9.462962962962964,0)" xlink:href="#af"/><use transform="matrix(0.04320987654320988,0,0,0.04320987654320988,18.10493827160494,0)" xlink:href="#ab"/><use transform="matrix(0.04320987654320988,0,0,0.04320987654320988,24.154320987654323,0)" xlink:href="#at"/><use transform="matrix(0.04320987654320988,0,0,0.04320987654320988,32.7962962962963,0)" xlink:href="#au"/><use transform="matrix(0.04320987654320988,0,0,0.04320987654320988,37.117283950617285,0)" xlink:href="#at"/><use transform="matrix(0.04320987654320988,0,0,0.04320987654320988,45.75925925925927,0)" xlink:href="#ai"/><use transform="matrix(0.04320987654320988,0,0,0.04320987654320988,50.90123456790123,0)" xlink:href="#bl"/><use transform="matrix(0.04320987654320988,0,0,0.04320987654320988,56.04320987654321,0)" xlink:href="#ar"/><use transform="matrix(0.04320987654320988,0,0,0.04320987654320988,65.50617283950618,0)" xlink:href="#at"/><use transform="matrix(0.04320987654320988,0,0,0.04320987654320988,74.14814814814815,0)" xlink:href="#af"/><use transform="matrix(0.04320987654320988,0,0,0.04320987654320988,82.79012345679013,0)" xlink:href="#ab"/><use transform="matrix(0.04320987654320988,0,0,0.04320987654320988,88.83950617283952,0)" xlink:href="#bm"/><use transform="matrix(0.04320987654320988,0,0,0.04320987654320988,93.16049382716048,0)" xlink:href="#am"/><use transform="matrix(0.04320987654320988,0,0,0.04320987654320988,102.62345679012344,0)" xlink:href="#bn"/></g><path fill="#333" d="M220-157c-53 9-28 100-34 157h-49v-107c1-27-5-49-29-50C55-147 81-57 75 0H25l-1-190h47c2 12-1 28 3 38 10-53 101-56 108 0 13-22 24-43 59-42 82 1 51 116 57 194h-49v-107c-1-25-5-48-29-50" id="bo"/><g id="v"><use transform="matrix(0.04320987654320988,0,0,0.04320987654320988,0,0)" xlink:href="#au"/><use transform="matrix(0.04320987654320988,0,0,0.04320987654320988,4.320987654320988,0)" xlink:href="#ai"/><use transform="matrix(0.04320987654320988,0,0,0.04320987654320988,9.462962962962964,0)" xlink:href="#af"/><use transform="matrix(0.04320987654320988,0,0,0.04320987654320988,18.10493827160494,0)" xlink:href="#bo"/><use transform="matrix(0.04320987654320988,0,0,0.04320987654320988,31.9320987654321,0)" xlink:href="#bm"/><use transform="matrix(0.04320987654320988,0,0,0.04320987654320988,36.25308641975309,0)" xlink:href="#am"/><use transform="matrix(0.04320987654320988,0,0,0.04320987654320988,45.71604938271605,0)" xlink:href="#bn"/></g><g id="w"><use transform="matrix(0.04320987654320988,0,0,0.04320987654320988,0,0)" xlink:href="#ag"/><use transform="matrix(0.04320987654320988,0,0,0.04320987654320988,9.462962962962964,0)" xlink:href="#ar"/><use transform="matrix(0.04320987654320988,0,0,0.04320987654320988,18.925925925925927,0)" xlink:href="#ak"/><use transform="matrix(0.04320987654320988,0,0,0.04320987654320988,28.388888888888893,0)" xlink:href="#ai"/><use transform="matrix(0.04320987654320988,0,0,0.04320987654320988,33.53086419753087,0)" xlink:href="#ah"/><use transform="matrix(0.04320987654320988,0,0,0.04320987654320988,42.99382716049383,0)" xlink:href="#ae"/><use transform="matrix(0.04320987654320988,0,0,0.04320987654320988,54.18518518518519,0)" xlink:href="#af"/><use transform="matrix(0.04320987654320988,0,0,0.04320987654320988,62.827160493827165,0)" xlink:href="#ac"/><use transform="matrix(0.04320987654320988,0,0,0.04320987654320988,71.46913580246914,0)" xlink:href="#au"/><use transform="matrix(0.04320987654320988,0,0,0.04320987654320988,75.79012345679013,0)" xlink:href="#ac"/><use transform="matrix(0.04320987654320988,0,0,0.04320987654320988,84.4320987654321,0)" xlink:href="#al"/><use transform="matrix(0.04320987654320988,0,0,0.04320987654320988,88.75308641975309,0)" xlink:href="#an"/><use transform="matrix(0.04320987654320988,0,0,0.04320987654320988,97.39506172839508,0)" xlink:href="#am"/><use transform="matrix(0.04320987654320988,0,0,0.04320987654320988,106.85802469135801,0)" xlink:href="#ah"/><use transform="matrix(0.04320987654320988,0,0,0.04320987654320988,116.32098765432099,0)" xlink:href="#bm"/><use transform="matrix(0.04320987654320988,0,0,0.04320987654320988,120.64197530864197,0)" xlink:href="#am"/><use transform="matrix(0.04320987654320988,0,0,0.04320987654320988,130.10493827160494,0)" xlink:href="#bn"/></g><path fill="#333" d="M102-93c0 74-22 123-52 168H0C30 29 54-18 53-93c0-74-22-123-53-168h50c30 45 52 94 52 168" id="bp"/><g id="x"><use transform="matrix(0.04320987654320988,0,0,0.04320987654320988,0,0)" xlink:href="#ac"/><use transform="matrix(0.04320987654320988,0,0,0.04320987654320988,8.641975308641976,0)" xlink:href="#an"/><use transform="matrix(0.04320987654320988,0,0,0.04320987654320988,17.283950617283953,0)" xlink:href="#ak"/><use transform="matrix(0.04320987654320988,0,0,0.04320987654320988,26.746913580246915,0)" xlink:href="#ai"/><use transform="matrix(0.04320987654320988,0,0,0.04320987654320988,31.888888888888893,0)" xlink:href="#au"/><use transform="matrix(0.04320987654320988,0,0,0.04320987654320988,36.20987654320988,0)" xlink:href="#am"/><use transform="matrix(0.04320987654320988,0,0,0.04320987654320988,45.67283950617284,0)" xlink:href="#an"/><use transform="matrix(0.04320987654320988,0,0,0.04320987654320988,54.314814814814824,0)" xlink:href="#am"/><use transform="matrix(0.04320987654320988,0,0,0.04320987654320988,63.77777777777777,0)" xlink:href="#bp"/></g><path d="M24-231v-30h32v30H24zM24 0v-190h32V0H24" id="bq"/><path d="M33-154v-36h34v36H33zM33 0v-36h34V0H33" id="br"/><g id="y"><use transform="matrix(0.05,0,0,0.05,0,0)" xlink:href="#bq"/><use transform="matrix(0.05,0,0,0.05,3.95,0)" xlink:href="#br"/><path d="M-.9 1.25h15.75v1.32H-.9z"/></g><path d="M33 0v-248h34V0H33" id="bs"/><path d="M59-47c-2 24 18 29 38 22v24C64 9 27 4 27-40v-127H5v-23h24l9-43h21v43h35v23H59v120" id="bt"/><path d="M100-194c63 0 86 42 84 106H49c0 40 14 67 53 68 26 1 43-12 49-29l28 8c-11 28-37 45-77 45C44 4 14-33 15-96c1-61 26-98 85-98zm52 81c6-60-76-77-97-28-3 7-6 17-6 28h103" id="bu"/><path d="M210-169c-67 3-38 105-44 169h-31v-121c0-29-5-50-35-48C34-165 62-65 56 0H25l-1-190h30c1 10-1 24 2 32 10-44 99-50 107 0 11-21 27-35 58-36 85-2 47 119 55 194h-31v-121c0-29-5-49-35-48" id="bv"/><g id="z"><use transform="matrix(0.05,0,0,0.05,0,0)" xlink:href="#bs"/><use transform="matrix(0.05,0,0,0.05,5,0)" xlink:href="#bt"/><use transform="matrix(0.05,0,0,0.05,10,0)" xlink:href="#bu"/><use transform="matrix(0.05,0,0,0.05,20,0)" xlink:href="#bv"/><use transform="matrix(0.05,0,0,0.05,34.95,0)" xlink:href="#bs"/><path d="M-.9 1.25h41.75v1.32H-.9z"/></g><path d="M115-194c55 1 70 41 70 98S169 2 115 4C84 4 66-9 55-30l1 105H24l-1-265h31l2 30c10-21 28-34 59-34zm-8 174c40 0 45-34 45-75s-6-73-45-74c-42 0-51 32-51 76 0 43 10 73 51 73" id="bw"/><path d="M114-163C36-179 61-72 57 0H25l-1-190h30c1 12-1 29 2 39 6-27 23-49 58-41v29" id="bx"/><g id="A"><use transform="matrix(0.05,0,0,0.05,0,0)" xlink:href="#bw"/><use transform="matrix(0.05,0,0,0.05,10,0)" xlink:href="#bx"/><path d="M-.9 1.25h22.75v1.32H-.9z"/></g><g id="B"><use transform="matrix(0.05,0,0,0.05,0,0)" xlink:href="#br"/><path d="M-.9 1.25h11.8v1.32H-.9z"/></g><path d="M30-248c87 1 191-15 191 75 0 78-77 80-158 76V0H30v-248zm33 125c57 0 124 11 124-50 0-59-68-47-124-48v98" id="by"/><path d="M84 4C-5 8 30-112 23-190h32v120c0 31 7 50 39 49 72-2 45-101 50-169h31l1 190h-30c-1-10 1-25-2-33-11 22-28 36-60 37" id="bz"/><path d="M117-194c89-4 53 116 60 194h-32v-121c0-31-8-49-39-48C34-167 62-67 57 0H25l-1-190h30c1 10-1 24 2 32 11-22 29-35 61-36" id="bA"/><path d="M100-194c62-1 85 37 85 99 1 63-27 99-86 99S16-35 15-95c0-66 28-99 85-99zM99-20c44 1 53-31 53-75 0-43-8-75-51-75s-53 32-53 75 10 74 51 75" id="bB"/><path d="M233-177c-1 41-23 64-60 70L243 0h-38l-65-103H63V0H30v-248c88 3 205-21 203 71zM63-129c60-2 137 13 137-47 0-61-80-42-137-45v92" id="bC"/><path d="M96-169c-40 0-48 33-48 73s9 75 48 75c24 0 41-14 43-38l32 2c-6 37-31 61-74 61-59 0-76-41-82-99-10-93 101-131 147-64 4 7 5 14 7 22l-32 3c-4-21-16-35-41-35" id="bD"/><path d="M24 0v-261h32V0H24" id="bE"/><g id="C"><use transform="matrix(0.05,0,0,0.05,0,0)" xlink:href="#by"/><use transform="matrix(0.05,0,0,0.05,12,0)" xlink:href="#bz"/><use transform="matrix(0.05,0,0,0.05,22,0)" xlink:href="#bA"/><use transform="matrix(0.05,0,0,0.05,32,0)" xlink:href="#bt"/><use transform="matrix(0.05,0,0,0.05,37,0)" xlink:href="#bB"/><use transform="matrix(0.05,0,0,0.05,47,0)" xlink:href="#bC"/><use transform="matrix(0.05,0,0,0.05,59.95,0)" xlink:href="#bu"/><use transform="matrix(0.05,0,0,0.05,69.95,0)" xlink:href="#bD"/><use transform="matrix(0.05,0,0,0.05,78.95,0)" xlink:href="#bB"/><use transform="matrix(0.05,0,0,0.05,88.95,0)" xlink:href="#bE"/><use transform="matrix(0.05,0,0,0.05,92.9,0)" xlink:href="#bu"/><use transform="matrix(0.05,0,0,0.05,102.9,0)" xlink:href="#bD"/><use transform="matrix(0.05,0,0,0.05,111.9,0)" xlink:href="#bD"/><use transform="matrix(0.05,0,0,0.05,120.9,0)" xlink:href="#bq"/><use transform="matrix(0.05,0,0,0.05,124.85000000000001,0)" xlink:href="#bB"/><use transform="matrix(0.05,0,0,0.05,134.85000000000002,0)" xlink:href="#bA"/><path d="M-.9 1.25h146.65v1.32H-.9z"/></g><g id="D"><use transform="matrix(0.04320987654320988,0,0,0.04320987654320988,0,0)" xlink:href="#aj"/><use transform="matrix(0.04320987654320988,0,0,0.04320987654320988,11.19135802469136,0)" xlink:href="#ab"/><use transform="matrix(0.04320987654320988,0,0,0.04320987654320988,17.24074074074074,0)" xlink:href="#af"/><use transform="matrix(0.04320987654320988,0,0,0.04320987654320988,25.882716049382715,0)" xlink:href="#an"/><use transform="matrix(0.04320987654320988,0,0,0.04320987654320988,34.52469135802469,0)" xlink:href="#ai"/><use transform="matrix(0.04320987654320988,0,0,0.04320987654320988,39.666666666666664,0)" xlink:href="#af"/></g><g id="E"><use transform="matrix(0.04320987654320988,0,0,0.04320987654320988,0,0)" xlink:href="#ab"/><use transform="matrix(0.04320987654320988,0,0,0.04320987654320988,6.049382716049383,0)" xlink:href="#af"/><use transform="matrix(0.04320987654320988,0,0,0.04320987654320988,14.69135802469136,0)" xlink:href="#ai"/><use transform="matrix(0.04320987654320988,0,0,0.04320987654320988,19.833333333333336,0)" xlink:href="#ar"/><use transform="matrix(0.04320987654320988,0,0,0.04320987654320988,29.296296296296298,0)" xlink:href="#ab"/><use transform="matrix(0.04320987654320988,0,0,0.04320987654320988,35.345679012345684,0)" xlink:href="#ak"/></g><path fill="#333" d="M23 0v-37h61v-169l-59 37v-38l62-41h46v211h57V0H23" id="bF"/><g id="F"><use transform="matrix(0.04320987654320988,0,0,0.04320987654320988,0,0)" xlink:href="#ar"/><use transform="matrix(0.04320987654320988,0,0,0.04320987654320988,9.462962962962964,0)" xlink:href="#at"/><use transform="matrix(0.04320987654320988,0,0,0.04320987654320988,18.10493827160494,0)" xlink:href="#ar"/><use transform="matrix(0.04320987654320988,0,0,0.04320987654320988,27.567901234567906,0)" xlink:href="#an"/><use transform="matrix(0.04320987654320988,0,0,0.04320987654320988,36.20987654320988,0)" xlink:href="#ab"/><use transform="matrix(0.04320987654320988,0,0,0.04320987654320988,42.25925925925927,0)" xlink:href="#au"/><use transform="matrix(0.04320987654320988,0,0,0.04320987654320988,46.580246913580254,0)" xlink:href="#ah"/><use transform="matrix(0.04320987654320988,0,0,0.04320987654320988,56.043209876543216,0)" xlink:href="#bF"/></g><path fill="#333" d="M121-226c-27-7-43 5-38 36h38v33H83V0H34v-157H6v-33h28c-9-59 32-81 87-68v32" id="bG"/><path fill="#333" d="M182-130c37 4 62 22 62 59C244 23 116-4 24 0v-248c84 5 203-23 205 63 0 31-19 50-47 55zM76-148c40-3 101 13 101-30 0-44-60-28-101-31v61zm0 110c48-3 116 14 116-37 0-48-69-32-116-35v72" id="bH"/><path fill="#333" d="M123 10C108 53 80 86 19 72V37c35 8 53-11 59-39L3-190h52l48 148c12-52 28-100 44-148h51" id="bI"/><g id="G"><use transform="matrix(0.04320987654320988,0,0,0.04320987654320988,0,0)" xlink:href="#bG"/><use transform="matrix(0.04320987654320988,0,0,0.04320987654320988,5.1419753086419755,0)" xlink:href="#au"/><use transform="matrix(0.04320987654320988,0,0,0.04320987654320988,9.462962962962964,0)" xlink:href="#ak"/><use transform="matrix(0.04320987654320988,0,0,0.04320987654320988,18.925925925925927,0)" xlink:href="#am"/><use transform="matrix(0.04320987654320988,0,0,0.04320987654320988,28.388888888888893,0)" xlink:href="#bH"/><use transform="matrix(0.04320987654320988,0,0,0.04320987654320988,39.580246913580254,0)" xlink:href="#bI"/><use transform="matrix(0.04320987654320988,0,0,0.04320987654320988,48.22222222222223,0)" xlink:href="#bm"/><use transform="matrix(0.04320987654320988,0,0,0.04320987654320988,52.543209876543216,0)" xlink:href="#am"/><use transform="matrix(0.04320987654320988,0,0,0.04320987654320988,62.00617283950618,0)" xlink:href="#bl"/><use transform="matrix(0.04320987654320988,0,0,0.04320987654320988,67.14814814814815,0)" xlink:href="#ar"/><use transform="matrix(0.04320987654320988,0,0,0.04320987654320988,76.61111111111111,0)" xlink:href="#at"/><use transform="matrix(0.04320987654320988,0,0,0.04320987654320988,85.25308641975309,0)" xlink:href="#af"/><use transform="matrix(0.04320987654320988,0,0,0.04320987654320988,93.89506172839508,0)" xlink:href="#ab"/><use transform="matrix(0.04320987654320988,0,0,0.04320987654320988,99.94444444444443,0)" xlink:href="#bm"/><use transform="matrix(0.04320987654320988,0,0,0.04320987654320988,104.26543209876543,0)" xlink:href="#am"/><use transform="matrix(0.04320987654320988,0,0,0.04320987654320988,113.72839506172839,0)" xlink:href="#bp"/></g><g id="H"><use transform="matrix(0.04320987654320988,0,0,0.04320987654320988,0,0)" xlink:href="#au"/><use transform="matrix(0.04320987654320988,0,0,0.04320987654320988,4.320987654320988,0)" xlink:href="#ai"/><use transform="matrix(0.04320987654320988,0,0,0.04320987654320988,9.462962962962964,0)" xlink:href="#af"/><use transform="matrix(0.04320987654320988,0,0,0.04320987654320988,18.10493827160494,0)" xlink:href="#bo"/><use transform="matrix(0.04320987654320988,0,0,0.04320987654320988,31.9320987654321,0)" xlink:href="#bF"/></g><g id="I"><use transform="matrix(0.04320987654320988,0,0,0.04320987654320988,0,0)" xlink:href="#bG"/><use transform="matrix(0.04320987654320988,0,0,0.04320987654320988,5.1419753086419755,0)" xlink:href="#au"/><use transform="matrix(0.04320987654320988,0,0,0.04320987654320988,9.462962962962964,0)" xlink:href="#ak"/><use transform="matrix(0.04320987654320988,0,0,0.04320987654320988,18.925925925925927,0)" xlink:href="#am"/><use transform="matrix(0.04320987654320988,0,0,0.04320987654320988,28.388888888888893,0)" xlink:href="#bH"/><use transform="matrix(0.04320987654320988,0,0,0.04320987654320988,39.580246913580254,0)" xlink:href="#bI"/><use transform="matrix(0.04320987654320988,0,0,0.04320987654320988,48.22222222222223,0)" xlink:href="#bm"/><use transform="matrix(0.04320987654320988,0,0,0.04320987654320988,52.543209876543216,0)" xlink:href="#am"/><use transform="matrix(0.04320987654320988,0,0,0.04320987654320988,62.00617283950618,0)" xlink:href="#bl"/><use transform="matrix(0.04320987654320988,0,0,0.04320987654320988,67.14814814814815,0)" xlink:href="#au"/><use transform="matrix(0.04320987654320988,0,0,0.04320987654320988,71.46913580246914,0)" xlink:href="#ai"/><use transform="matrix(0.04320987654320988,0,0,0.04320987654320988,76.61111111111111,0)" xlink:href="#af"/><use transform="matrix(0.04320987654320988,0,0,0.04320987654320988,85.25308641975309,0)" xlink:href="#bo"/><use transform="matrix(0.04320987654320988,0,0,0.04320987654320988,99.08024691358025,0)" xlink:href="#bm"/><use transform="matrix(0.04320987654320988,0,0,0.04320987654320988,103.40123456790124,0)" xlink:href="#am"/><use transform="matrix(0.04320987654320988,0,0,0.04320987654320988,112.8641975308642,0)" xlink:href="#bp"/></g><path fill="#333" d="M25-224v-37h50v37H25zM75 22c2 45-34 59-81 51V38c22 5 31-5 31-27v-201h50V22" id="bJ"/><g id="J"><use transform="matrix(0.04320987654320988,0,0,0.04320987654320988,0,0)" xlink:href="#ag"/><use transform="matrix(0.04320987654320988,0,0,0.04320987654320988,9.462962962962964,0)" xlink:href="#ar"/><use transform="matrix(0.04320987654320988,0,0,0.04320987654320988,18.925925925925927,0)" xlink:href="#ak"/><use transform="matrix(0.04320987654320988,0,0,0.04320987654320988,28.388888888888893,0)" xlink:href="#ai"/><use transform="matrix(0.04320987654320988,0,0,0.04320987654320988,33.53086419753087,0)" xlink:href="#ah"/><use transform="matrix(0.04320987654320988,0,0,0.04320987654320988,42.99382716049383,0)" xlink:href="#ae"/><use transform="matrix(0.04320987654320988,0,0,0.04320987654320988,54.18518518518519,0)" xlink:href="#af"/><use transform="matrix(0.04320987654320988,0,0,0.04320987654320988,62.827160493827165,0)" xlink:href="#ac"/><use transform="matrix(0.04320987654320988,0,0,0.04320987654320988,71.46913580246914,0)" xlink:href="#au"/><use transform="matrix(0.04320987654320988,0,0,0.04320987654320988,75.79012345679013,0)" xlink:href="#ac"/><use transform="matrix(0.04320987654320988,0,0,0.04320987654320988,84.4320987654321,0)" xlink:href="#al"/><use transform="matrix(0.04320987654320988,0,0,0.04320987654320988,88.75308641975309,0)" xlink:href="#an"/><use transform="matrix(0.04320987654320988,0,0,0.04320987654320988,97.39506172839508,0)" xlink:href="#bJ"/><use transform="matrix(0.04320987654320988,0,0,0.04320987654320988,101.71604938271606,0)" xlink:href="#af"/><use transform="matrix(0.04320987654320988,0,0,0.04320987654320988,110.35802469135801,0)" xlink:href="#bF"/></g><g id="K"><use transform="matrix(0.04320987654320988,0,0,0.04320987654320988,0,0)" xlink:href="#bG"/><use transform="matrix(0.04320987654320988,0,0,0.04320987654320988,5.1419753086419755,0)" xlink:href="#au"/><use transform="matrix(0.04320987654320988,0,0,0.04320987654320988,9.462962962962964,0)" xlink:href="#ak"/><use transform="matrix(0.04320987654320988,0,0,0.04320987654320988,18.925925925925927,0)" xlink:href="#am"/><use transform="matrix(0.04320987654320988,0,0,0.04320987654320988,28.388888888888893,0)" xlink:href="#bH"/><use transform="matrix(0.04320987654320988,0,0,0.04320987654320988,39.580246913580254,0)" xlink:href="#bI"/><use transform="matrix(0.04320987654320988,0,0,0.04320987654320988,48.22222222222223,0)" xlink:href="#bm"/><use transform="matrix(0.04320987654320988,0,0,0.04320987654320988,52.543209876543216,0)" xlink:href="#am"/><use transform="matrix(0.04320987654320988,0,0,0.04320987654320988,62.00617283950618,0)" xlink:href="#bl"/><use transform="matrix(0.04320987654320988,0,0,0.04320987654320988,67.14814814814815,0)" xlink:href="#ag"/><use transform="matrix(0.04320987654320988,0,0,0.04320987654320988,76.61111111111111,0)" xlink:href="#ar"/><use transform="matrix(0.04320987654320988,0,0,0.04320987654320988,86.07407407407408,0)" xlink:href="#ak"/><use transform="matrix(0.04320987654320988,0,0,0.04320987654320988,95.53703703703705,0)" xlink:href="#ai"/><use transform="matrix(0.04320987654320988,0,0,0.04320987654320988,100.679012345679,0)" xlink:href="#ah"/><use transform="matrix(0.04320987654320988,0,0,0.04320987654320988,110.14197530864196,0)" xlink:href="#ae"/><use transform="matrix(0.04320987654320988,0,0,0.04320987654320988,121.33333333333333,0)" xlink:href="#af"/><use transform="matrix(0.04320987654320988,0,0,0.04320987654320988,129.97530864197532,0)" xlink:href="#ac"/><use transform="matrix(0.04320987654320988,0,0,0.04320987654320988,138.6172839506173,0)" xlink:href="#ah"/><use transform="matrix(0.04320987654320988,0,0,0.04320987654320988,148.08024691358025,0)" xlink:href="#al"/><use transform="matrix(0.04320987654320988,0,0,0.04320987654320988,152.40123456790124,0)" xlink:href="#af"/><use transform="matrix(0.04320987654320988,0,0,0.04320987654320988,161.04320987654322,0)" xlink:href="#ac"/><use transform="matrix(0.04320987654320988,0,0,0.04320987654320988,169.6851851851852,0)" xlink:href="#ac"/><use transform="matrix(0.04320987654320988,0,0,0.04320987654320988,178.32716049382717,0)" xlink:href="#au"/><use transform="matrix(0.04320987654320988,0,0,0.04320987654320988,182.64814814814818,0)" xlink:href="#ah"/><use transform="matrix(0.04320987654320988,0,0,0.04320987654320988,192.11111111111114,0)" xlink:href="#ak"/><use transform="matrix(0.04320987654320988,0,0,0.04320987654320988,201.5740740740741,0)" xlink:href="#bm"/><use transform="matrix(0.04320987654320988,0,0,0.04320987654320988,205.89506172839504,0)" xlink:href="#am"/><use transform="matrix(0.04320987654320988,0,0,0.04320987654320988,215.358024691358,0)" xlink:href="#bp"/></g><path fill="#333" d="M24 0v-248h52v208h133V0H24" id="bK"/><path fill="#333" d="M136-208V0H84v-208H4v-40h212v40h-80" id="bL"/><g id="L"><use transform="matrix(0.04320987654320988,0,0,0.04320987654320988,0,0)" xlink:href="#ap"/><use transform="matrix(0.04320987654320988,0,0,0.04320987654320988,11.19135802469136,0)" xlink:href="#bK"/><use transform="matrix(0.04320987654320988,0,0,0.04320987654320988,19.48765432098766,0)" xlink:href="#bL"/></g><path fill="#333" d="M20 75v-336h95v34H67V41h48v34H20" id="bM"/><path fill="#333" d="M80-75H40l-6-173h52zM34 0v-47h51V0H34" id="bN"/><path fill="#333" d="M15-148v-39h180v39H15zm0 97v-39h180v39H15" id="bO"/><g id="M"><use transform="matrix(0.04320987654320988,0,0,0.04320987654320988,0,0)" xlink:href="#bM"/><use transform="matrix(0.04320987654320988,0,0,0.04320987654320988,5.1419753086419755,0)" xlink:href="#ar"/><use transform="matrix(0.04320987654320988,0,0,0.04320987654320988,14.60493827160494,0)" xlink:href="#at"/><use transform="matrix(0.04320987654320988,0,0,0.04320987654320988,23.246913580246915,0)" xlink:href="#ar"/><use transform="matrix(0.04320987654320988,0,0,0.04320987654320988,32.70987654320988,0)" xlink:href="#an"/><use transform="matrix(0.04320987654320988,0,0,0.04320987654320988,41.351851851851855,0)" xlink:href="#ab"/><use transform="matrix(0.04320987654320988,0,0,0.04320987654320988,47.40123456790124,0)" xlink:href="#au"/><use transform="matrix(0.04320987654320988,0,0,0.04320987654320988,51.72222222222223,0)" xlink:href="#ah"/><use transform="matrix(0.04320987654320988,0,0,0.04320987654320988,61.18518518518519,0)" xlink:href="#bF"/><use transform="matrix(0.04320987654320988,0,0,0.04320987654320988,69.82716049382717,0)" xlink:href="#bN"/><use transform="matrix(0.04320987654320988,0,0,0.04320987654320988,74.96913580246914,0)" xlink:href="#bO"/><use transform="matrix(0.04320987654320988,0,0,0.04320987654320988,84.04320987654322,0)" xlink:href="#ak"/><use transform="matrix(0.04320987654320988,0,0,0.04320987654320988,93.50617283950618,0)" xlink:href="#ar"/><use transform="matrix(0.04320987654320988,0,0,0.04320987654320988,102.96913580246914,0)" xlink:href="#al"/><use transform="matrix(0.04320987654320988,0,0,0.04320987654320988,107.29012345679014,0)" xlink:href="#al"/></g><path fill="#333" d="M168-19C124 19 11 11 16-68c3-43 29-60 59-75-25-44-12-111 53-106 37 3 64 15 64 52 0 43-40 52-69 68 12 22 27 41 43 59 14-19 21-38 28-64l37 13c-8 29-19 52-34 74 12 10 32 16 52 10v35c-28 11-65-2-81-17zm-58-139c19-9 43-14 43-39 0-14-10-22-25-22-34 0-33 41-18 61zM60-68c-3 40 55 47 79 25-18-20-34-42-48-67-18 8-30 20-31 42" id="bP"/><g id="N"><use transform="matrix(0.04320987654320988,0,0,0.04320987654320988,0,0)" xlink:href="#bP"/><use transform="matrix(0.04320987654320988,0,0,0.04320987654320988,11.19135802469136,0)" xlink:href="#bP"/></g><g id="O"><use transform="matrix(0.04320987654320988,0,0,0.04320987654320988,0,0)" xlink:href="#au"/><use transform="matrix(0.04320987654320988,0,0,0.04320987654320988,4.320987654320988,0)" xlink:href="#ai"/><use transform="matrix(0.04320987654320988,0,0,0.04320987654320988,9.462962962962964,0)" xlink:href="#af"/><use transform="matrix(0.04320987654320988,0,0,0.04320987654320988,18.10493827160494,0)" xlink:href="#bo"/><use transform="matrix(0.04320987654320988,0,0,0.04320987654320988,31.9320987654321,0)" xlink:href="#bF"/><use transform="matrix(0.04320987654320988,0,0,0.04320987654320988,40.574074074074076,0)" xlink:href="#bN"/><use transform="matrix(0.04320987654320988,0,0,0.04320987654320988,45.71604938271605,0)" xlink:href="#bO"/><use transform="matrix(0.04320987654320988,0,0,0.04320987654320988,54.79012345679013,0)" xlink:href="#ak"/><use transform="matrix(0.04320987654320988,0,0,0.04320987654320988,64.25308641975309,0)" xlink:href="#ar"/><use transform="matrix(0.04320987654320988,0,0,0.04320987654320988,73.71604938271605,0)" xlink:href="#al"/><use transform="matrix(0.04320987654320988,0,0,0.04320987654320988,78.03703703703704,0)" xlink:href="#al"/></g><g id="P"><use transform="matrix(0.04320987654320988,0,0,0.04320987654320988,0,0)" xlink:href="#bP"/><use transform="matrix(0.04320987654320988,0,0,0.04320987654320988,11.19135802469136,0)" xlink:href="#bP"/></g><path fill="#333" d="M4 75V41h49v-268H4v-34h96V75H4" id="bQ"/><g id="Q"><use transform="matrix(0.04320987654320988,0,0,0.04320987654320988,0,0)" xlink:href="#ag"/><use transform="matrix(0.04320987654320988,0,0,0.04320987654320988,9.462962962962964,0)" xlink:href="#ar"/><use transform="matrix(0.04320987654320988,0,0,0.04320987654320988,18.925925925925927,0)" xlink:href="#ak"/><use transform="matrix(0.04320987654320988,0,0,0.04320987654320988,28.388888888888893,0)" xlink:href="#ai"/><use transform="matrix(0.04320987654320988,0,0,0.04320987654320988,33.53086419753087,0)" xlink:href="#ah"/><use transform="matrix(0.04320987654320988,0,0,0.04320987654320988,42.99382716049383,0)" xlink:href="#ae"/><use transform="matrix(0.04320987654320988,0,0,0.04320987654320988,54.18518518518519,0)" xlink:href="#af"/><use transform="matrix(0.04320987654320988,0,0,0.04320987654320988,62.827160493827165,0)" xlink:href="#ac"/><use transform="matrix(0.04320987654320988,0,0,0.04320987654320988,71.46913580246914,0)" xlink:href="#au"/><use transform="matrix(0.04320987654320988,0,0,0.04320987654320988,75.79012345679013,0)" xlink:href="#ac"/><use transform="matrix(0.04320987654320988,0,0,0.04320987654320988,84.4320987654321,0)" xlink:href="#al"/><use transform="matrix(0.04320987654320988,0,0,0.04320987654320988,88.75308641975309,0)" xlink:href="#an"/><use transform="matrix(0.04320987654320988,0,0,0.04320987654320988,97.39506172839508,0)" xlink:href="#bJ"/><use transform="matrix(0.04320987654320988,0,0,0.04320987654320988,101.71604938271606,0)" xlink:href="#af"/><use transform="matrix(0.04320987654320988,0,0,0.04320987654320988,110.35802469135801,0)" xlink:href="#bF"/><use transform="matrix(0.04320987654320988,0,0,0.04320987654320988,118.99999999999999,0)" xlink:href="#bN"/><use transform="matrix(0.04320987654320988,0,0,0.04320987654320988,124.14197530864197,0)" xlink:href="#bO"/><use transform="matrix(0.04320987654320988,0,0,0.04320987654320988,133.21604938271605,0)" xlink:href="#ak"/><use transform="matrix(0.04320987654320988,0,0,0.04320987654320988,142.679012345679,0)" xlink:href="#ar"/><use transform="matrix(0.04320987654320988,0,0,0.04320987654320988,152.14197530864197,0)" xlink:href="#al"/><use transform="matrix(0.04320987654320988,0,0,0.04320987654320988,156.46296296296296,0)" xlink:href="#al"/><use transform="matrix(0.04320987654320988,0,0,0.04320987654320988,160.78395061728395,0)" xlink:href="#bQ"/></g><g id="R"><use transform="matrix(0.04320987654320988,0,0,0.04320987654320988,0,0)" xlink:href="#bM"/><use transform="matrix(0.04320987654320988,0,0,0.04320987654320988,5.1419753086419755,0)" xlink:href="#ar"/><use transform="matrix(0.04320987654320988,0,0,0.04320987654320988,14.60493827160494,0)" xlink:href="#at"/><use transform="matrix(0.04320987654320988,0,0,0.04320987654320988,23.246913580246915,0)" xlink:href="#ar"/><use transform="matrix(0.04320987654320988,0,0,0.04320987654320988,32.70987654320988,0)" xlink:href="#an"/><use transform="matrix(0.04320987654320988,0,0,0.04320987654320988,41.351851851851855,0)" xlink:href="#ab"/><use transform="matrix(0.04320987654320988,0,0,0.04320987654320988,47.40123456790124,0)" xlink:href="#au"/><use transform="matrix(0.04320987654320988,0,0,0.04320987654320988,51.72222222222223,0)" xlink:href="#ah"/><use transform="matrix(0.04320987654320988,0,0,0.04320987654320988,61.18518518518519,0)" xlink:href="#bF"/><use transform="matrix(0.04320987654320988,0,0,0.04320987654320988,69.82716049382717,0)" xlink:href="#bO"/><use transform="matrix(0.04320987654320988,0,0,0.04320987654320988,78.90123456790124,0)" xlink:href="#ak"/><use transform="matrix(0.04320987654320988,0,0,0.04320987654320988,88.3641975308642,0)" xlink:href="#ar"/><use transform="matrix(0.04320987654320988,0,0,0.04320987654320988,97.82716049382717,0)" xlink:href="#al"/><use transform="matrix(0.04320987654320988,0,0,0.04320987654320988,102.14814814814815,0)" xlink:href="#al"/></g><path fill="#333" d="M27 80v-341h46V80H27" id="bR"/><g id="S"><use transform="matrix(0.04320987654320988,0,0,0.04320987654320988,0,0)" xlink:href="#bR"/><use transform="matrix(0.04320987654320988,0,0,0.04320987654320988,4.320987654320988,0)" xlink:href="#bR"/></g><g id="T"><use transform="matrix(0.04320987654320988,0,0,0.04320987654320988,0,0)" xlink:href="#au"/><use transform="matrix(0.04320987654320988,0,0,0.04320987654320988,4.320987654320988,0)" xlink:href="#ai"/><use transform="matrix(0.04320987654320988,0,0,0.04320987654320988,9.462962962962964,0)" xlink:href="#af"/><use transform="matrix(0.04320987654320988,0,0,0.04320987654320988,18.10493827160494,0)" xlink:href="#bo"/><use transform="matrix(0.04320987654320988,0,0,0.04320987654320988,31.9320987654321,0)" xlink:href="#bF"/><use transform="matrix(0.04320987654320988,0,0,0.04320987654320988,40.574074074074076,0)" xlink:href="#bO"/><use transform="matrix(0.04320987654320988,0,0,0.04320987654320988,49.64814814814815,0)" xlink:href="#ak"/><use transform="matrix(0.04320987654320988,0,0,0.04320987654320988,59.111111111111114,0)" xlink:href="#ar"/><use transform="matrix(0.04320987654320988,0,0,0.04320987654320988,68.57407407407408,0)" xlink:href="#al"/><use transform="matrix(0.04320987654320988,0,0,0.04320987654320988,72.89506172839506,0)" xlink:href="#al"/></g><g id="U"><use transform="matrix(0.04320987654320988,0,0,0.04320987654320988,0,0)" xlink:href="#bR"/><use transform="matrix(0.04320987654320988,0,0,0.04320987654320988,4.320987654320988,0)" xlink:href="#bR"/></g><g id="V"><use transform="matrix(0.04320987654320988,0,0,0.04320987654320988,0,0)" xlink:href="#ag"/><use transform="matrix(0.04320987654320988,0,0,0.04320987654320988,9.462962962962964,0)" xlink:href="#ar"/><use transform="matrix(0.04320987654320988,0,0,0.04320987654320988,18.925925925925927,0)" xlink:href="#ak"/><use transform="matrix(0.04320987654320988,0,0,0.04320987654320988,28.388888888888893,0)" xlink:href="#ai"/><use transform="matrix(0.04320987654320988,0,0,0.04320987654320988,33.53086419753087,0)" xlink:href="#ah"/><use transform="matrix(0.04320987654320988,0,0,0.04320987654320988,42.99382716049383,0)" xlink:href="#ae"/><use transform="matrix(0.04320987654320988,0,0,0.04320987654320988,54.18518518518519,0)" xlink:href="#af"/><use transform="matrix(0.04320987654320988,0,0,0.04320987654320988,62.827160493827165,0)" xlink:href="#ac"/><use transform="matrix(0.04320987654320988,0,0,0.04320987654320988,71.46913580246914,0)" xlink:href="#au"/><use transform="matrix(0.04320987654320988,0,0,0.04320987654320988,75.79012345679013,0)" xlink:href="#ac"/><use transform="matrix(0.04320987654320988,0,0,0.04320987654320988,84.4320987654321,0)" xlink:href="#al"/><use transform="matrix(0.04320987654320988,0,0,0.04320987654320988,88.75308641975309,0)" xlink:href="#an"/><use transform="matrix(0.04320987654320988,0,0,0.04320987654320988,97.39506172839508,0)" xlink:href="#bJ"/><use transform="matrix(0.04320987654320988,0,0,0.04320987654320988,101.71604938271606,0)" xlink:href="#af"/><use transform="matrix(0.04320987654320988,0,0,0.04320987654320988,110.35802469135801,0)" xlink:href="#bF"/><use transform="matrix(0.04320987654320988,0,0,0.04320987654320988,118.99999999999999,0)" xlink:href="#bO"/><use transform="matrix(0.04320987654320988,0,0,0.04320987654320988,128.07407407407408,0)" xlink:href="#ak"/><use transform="matrix(0.04320987654320988,0,0,0.04320987654320988,137.53703703703704,0)" xlink:href="#ar"/><use transform="matrix(0.04320987654320988,0,0,0.04320987654320988,147,0)" xlink:href="#al"/><use transform="matrix(0.04320987654320988,0,0,0.04320987654320988,151.320987654321,0)" xlink:href="#al"/><use transform="matrix(0.04320987654320988,0,0,0.04320987654320988,155.64197530864197,0)" xlink:href="#bQ"/></g><path fill="#333" d="M114-157C55-157 80-60 75 0H25v-261h50l-1 109c12-26 28-41 61-42 86-1 58 113 63 194h-50c-7-57 23-157-34-157" id="bS"/><g id="W"><use transform="matrix(0.04320987654320988,0,0,0.04320987654320988,0,0)" xlink:href="#bS"/><use transform="matrix(0.04320987654320988,0,0,0.04320987654320988,9.462962962962964,0)" xlink:href="#ai"/><use transform="matrix(0.04320987654320988,0,0,0.04320987654320988,14.60493827160494,0)" xlink:href="#ai"/><use transform="matrix(0.04320987654320988,0,0,0.04320987654320988,19.746913580246915,0)" xlink:href="#ag"/></g><path fill="#333" d="M182-182c0 78-84 86-111 141h115V0H12c-6-101 99-100 120-180 1-22-12-31-33-32-23 0-32 14-35 34l-49-3c5-45 32-70 84-70 51 0 83 22 83 69" id="bT"/><path fill="#333" d="M101-251c68 0 84 54 84 127C185-50 166 4 99 4S15-52 14-124c-1-75 17-127 87-127zm-1 216c37-5 36-46 36-89s4-89-36-89c-39 0-36 45-36 89 0 43-3 85 36 89" id="bU"/><g id="X"><use transform="matrix(0.04320987654320988,0,0,0.04320987654320988,0,0)" xlink:href="#ab"/><use transform="matrix(0.04320987654320988,0,0,0.04320987654320988,6.049382716049383,0)" xlink:href="#af"/><use transform="matrix(0.04320987654320988,0,0,0.04320987654320988,14.69135802469136,0)" xlink:href="#at"/><use transform="matrix(0.04320987654320988,0,0,0.04320987654320988,23.333333333333336,0)" xlink:href="#ag"/><use transform="matrix(0.04320987654320988,0,0,0.04320987654320988,32.7962962962963,0)" xlink:href="#ah"/><use transform="matrix(0.04320987654320988,0,0,0.04320987654320988,42.25925925925926,0)" xlink:href="#ak"/><use transform="matrix(0.04320987654320988,0,0,0.04320987654320988,51.722222222222214,0)" xlink:href="#at"/><use transform="matrix(0.04320987654320988,0,0,0.04320987654320988,60.364197530864196,0)" xlink:href="#af"/><use transform="matrix(0.04320987654320988,0,0,0.04320987654320988,69.00617283950618,0)" xlink:href="#bl"/><use transform="matrix(0.04320987654320988,0,0,0.04320987654320988,74.14814814814815,0)" xlink:href="#bT"/><use transform="matrix(0.04320987654320988,0,0,0.04320987654320988,82.79012345679013,0)" xlink:href="#bU"/><use transform="matrix(0.04320987654320988,0,0,0.04320987654320988,91.4320987654321,0)" xlink:href="#bF"/><use transform="matrix(0.04320987654320988,0,0,0.04320987654320988,100.07407407407409,0)" xlink:href="#bp"/></g><path fill="#333" d="M165-50V0h-47v-50H5v-38l105-160h55v161h33v37h-33zm-47-37l2-116L46-87h72" id="bV"/><g id="Y"><use transform="matrix(0.04320987654320988,0,0,0.04320987654320988,0,0)" xlink:href="#ab"/><use transform="matrix(0.04320987654320988,0,0,0.04320987654320988,6.049382716049383,0)" xlink:href="#af"/><use transform="matrix(0.04320987654320988,0,0,0.04320987654320988,14.69135802469136,0)" xlink:href="#at"/><use transform="matrix(0.04320987654320988,0,0,0.04320987654320988,23.333333333333336,0)" xlink:href="#ag"/><use transform="matrix(0.04320987654320988,0,0,0.04320987654320988,32.7962962962963,0)" xlink:href="#ah"/><use transform="matrix(0.04320987654320988,0,0,0.04320987654320988,42.25925925925926,0)" xlink:href="#ak"/><use transform="matrix(0.04320987654320988,0,0,0.04320987654320988,51.722222222222214,0)" xlink:href="#at"/><use transform="matrix(0.04320987654320988,0,0,0.04320987654320988,60.364197530864196,0)" xlink:href="#af"/><use transform="matrix(0.04320987654320988,0,0,0.04320987654320988,69.00617283950618,0)" xlink:href="#bl"/><use transform="matrix(0.04320987654320988,0,0,0.04320987654320988,74.14814814814815,0)" xlink:href="#bV"/><use transform="matrix(0.04320987654320988,0,0,0.04320987654320988,82.79012345679013,0)" xlink:href="#bU"/><use transform="matrix(0.04320987654320988,0,0,0.04320987654320988,91.4320987654321,0)" xlink:href="#bV"/><use transform="matrix(0.04320987654320988,0,0,0.04320987654320988,100.07407407407409,0)" xlink:href="#bp"/></g><g id="Z"><use transform="matrix(0.04320987654320988,0,0,0.04320987654320988,0,0)" xlink:href="#aj"/><use transform="matrix(0.04320987654320988,0,0,0.04320987654320988,11.19135802469136,0)" xlink:href="#ab"/><use transform="matrix(0.04320987654320988,0,0,0.04320987654320988,17.24074074074074,0)" xlink:href="#af"/><use transform="matrix(0.04320987654320988,0,0,0.04320987654320988,25.882716049382715,0)" xlink:href="#an"/><use transform="matrix(0.04320987654320988,0,0,0.04320987654320988,34.52469135802469,0)" xlink:href="#ai"/><use transform="matrix(0.04320987654320988,0,0,0.04320987654320988,39.666666666666664,0)" xlink:href="#af"/></g><g id="aa"><use transform="matrix(0.04320987654320988,0,0,0.04320987654320988,0,0)" xlink:href="#ag"/><use transform="matrix(0.04320987654320988,0,0,0.04320987654320988,9.462962962962964,0)" xlink:href="#af"/><use transform="matrix(0.04320987654320988,0,0,0.04320987654320988,18.10493827160494,0)" xlink:href="#ab"/><use transform="matrix(0.04320987654320988,0,0,0.04320987654320988,24.154320987654323,0)" xlink:href="#at"/><use transform="matrix(0.04320987654320988,0,0,0.04320987654320988,32.7962962962963,0)" xlink:href="#au"/><use transform="matrix(0.04320987654320988,0,0,0.04320987654320988,37.117283950617285,0)" xlink:href="#at"/><use transform="matrix(0.04320987654320988,0,0,0.04320987654320988,45.75925925925927,0)" xlink:href="#ai"/><use transform="matrix(0.04320987654320988,0,0,0.04320987654320988,50.90123456790123,0)" xlink:href="#bl"/><use transform="matrix(0.04320987654320988,0,0,0.04320987654320988,56.04320987654321,0)" xlink:href="#bp"/></g></defs></g></svg>